<mxfile host="app.diagrams.net" modified="2023-08-15T19:13:40.021Z" agent="Mozilla/5.0 (Macintosh; Intel Mac OS X 10_15_7) AppleWebKit/605.1.15 (KHTML, like Gecko) Version/16.3 Safari/605.1.15" etag="oxfHg-CPuzLrzaVU6CEH" version="21.6.6" type="github" pages="6">
  <diagram id="BWPgkQPp7QExBuPRqTeC" name="generator">
    <mxGraphModel dx="911" dy="649" grid="1" gridSize="10" guides="1" tooltips="1" connect="1" arrows="1" fold="1" page="1" pageScale="1" pageWidth="1169" pageHeight="827" math="1" shadow="0">
      <root>
        <mxCell id="0" />
        <mxCell id="1" parent="0" />
        <mxCell id="tqe345nlHWXfy0BIeD9P-1" value="" style="rounded=0;whiteSpace=wrap;html=1;fillColor=#dae8fc;strokeColor=#6c8ebf;" parent="1" vertex="1">
          <mxGeometry x="320" y="260" width="399" height="120" as="geometry" />
        </mxCell>
        <mxCell id="tqe345nlHWXfy0BIeD9P-2" value="Decoder&lt;br&gt;$$g_\psi$$" style="whiteSpace=wrap;html=1;aspect=fixed;fillColor=#A9C4EB;strokeColor=#6c8ebf;" parent="1" vertex="1">
          <mxGeometry x="479" y="280" width="80" height="80" as="geometry" />
        </mxCell>
        <mxCell id="tqe345nlHWXfy0BIeD9P-3" value="" style="endArrow=classic;html=1;rounded=0;entryX=0;entryY=0.5;entryDx=0;entryDy=0;exitX=1;exitY=0.5;exitDx=0;exitDy=0;" parent="1" source="tqe345nlHWXfy0BIeD9P-6" target="tqe345nlHWXfy0BIeD9P-2" edge="1">
          <mxGeometry width="50" height="50" relative="1" as="geometry">
            <mxPoint x="439" y="320" as="sourcePoint" />
            <mxPoint x="439" y="375" as="targetPoint" />
          </mxGeometry>
        </mxCell>
        <mxCell id="tqe345nlHWXfy0BIeD9P-4" value="" style="edgeStyle=elbowEdgeStyle;elbow=vertical;endArrow=classic;html=1;curved=0;rounded=0;endSize=8;startSize=8;dashed=1;entryX=0.5;entryY=1;entryDx=0;entryDy=0;exitX=0.5;exitY=1;exitDx=0;exitDy=0;" parent="1" source="tqe345nlHWXfy0BIeD9P-14" target="tqe345nlHWXfy0BIeD9P-6" edge="1">
          <mxGeometry width="50" height="50" relative="1" as="geometry">
            <mxPoint x="609" y="340" as="sourcePoint" />
            <mxPoint x="399" y="335" as="targetPoint" />
            <Array as="points">
              <mxPoint x="499" y="370" />
            </Array>
          </mxGeometry>
        </mxCell>
        <mxCell id="tqe345nlHWXfy0BIeD9P-5" value="$$\mathbf{x}$$" style="rounded=0;whiteSpace=wrap;html=1;fillColor=#d5e8d4;strokeColor=#82b366;" parent="1" vertex="1">
          <mxGeometry x="331" y="300" width="80" height="40" as="geometry" />
        </mxCell>
        <mxCell id="tqe345nlHWXfy0BIeD9P-6" value="$$\mathbf{y}_{&amp;lt;t}$$" style="rounded=0;whiteSpace=wrap;html=1;fillColor=#9AC7BF;strokeColor=#82b366;" parent="1" vertex="1">
          <mxGeometry x="410" y="300" width="40" height="40" as="geometry" />
        </mxCell>
        <mxCell id="tqe345nlHWXfy0BIeD9P-7" value="$$\mathbf{x}$$" style="rounded=0;whiteSpace=wrap;html=1;fillColor=#d5e8d4;strokeColor=#82b366;" parent="1" vertex="1">
          <mxGeometry x="200" y="300" width="80" height="40" as="geometry" />
        </mxCell>
        <mxCell id="tqe345nlHWXfy0BIeD9P-8" value="$$\mathbf{u} = (y_1, \cdots, y_M)$$" style="rounded=0;whiteSpace=wrap;html=1;fillColor=#9AC7BF;strokeColor=#82b366;" parent="1" vertex="1">
          <mxGeometry x="759" y="300" width="110" height="40" as="geometry" />
        </mxCell>
        <mxCell id="tqe345nlHWXfy0BIeD9P-9" value="" style="endArrow=classic;html=1;rounded=0;entryX=0;entryY=0.5;entryDx=0;entryDy=0;exitX=1;exitY=0.5;exitDx=0;exitDy=0;" parent="1" source="tqe345nlHWXfy0BIeD9P-7" target="tqe345nlHWXfy0BIeD9P-1" edge="1">
          <mxGeometry width="50" height="50" relative="1" as="geometry">
            <mxPoint x="209" y="260" as="sourcePoint" />
            <mxPoint x="249" y="260" as="targetPoint" />
            <Array as="points" />
          </mxGeometry>
        </mxCell>
        <mxCell id="tqe345nlHWXfy0BIeD9P-10" value="" style="endArrow=classic;html=1;rounded=0;entryX=0;entryY=0.5;entryDx=0;entryDy=0;exitX=1;exitY=0.5;exitDx=0;exitDy=0;" parent="1" source="tqe345nlHWXfy0BIeD9P-1" target="tqe345nlHWXfy0BIeD9P-8" edge="1">
          <mxGeometry width="50" height="50" relative="1" as="geometry">
            <mxPoint x="209" y="140" as="sourcePoint" />
            <mxPoint x="249" y="140" as="targetPoint" />
          </mxGeometry>
        </mxCell>
        <mxCell id="tqe345nlHWXfy0BIeD9P-12" value="Utterance" style="text;html=1;strokeColor=none;fillColor=none;align=left;verticalAlign=middle;whiteSpace=wrap;rounded=0;" parent="1" vertex="1">
          <mxGeometry x="759" y="280" width="110" height="20" as="geometry" />
        </mxCell>
        <mxCell id="tqe345nlHWXfy0BIeD9P-13" value="Generator input" style="text;html=1;strokeColor=none;fillColor=none;align=left;verticalAlign=middle;whiteSpace=wrap;rounded=0;" parent="1" vertex="1">
          <mxGeometry x="200" y="280" width="90" height="20" as="geometry" />
        </mxCell>
        <mxCell id="tqe345nlHWXfy0BIeD9P-14" value="$$y_{t}$$" style="rounded=0;whiteSpace=wrap;html=1;fillColor=#9AC7BF;strokeColor=#82b366;" parent="1" vertex="1">
          <mxGeometry x="669" y="300" width="40" height="40" as="geometry" />
        </mxCell>
        <mxCell id="tqe345nlHWXfy0BIeD9P-16" value="" style="group" parent="1" vertex="1" connectable="0">
          <mxGeometry x="589" y="300" width="20" height="40" as="geometry" />
        </mxCell>
        <mxCell id="tqe345nlHWXfy0BIeD9P-17" value="" style="endArrow=none;html=1;rounded=0;strokeColor=#7A7A7A;" parent="tqe345nlHWXfy0BIeD9P-16" edge="1">
          <mxGeometry width="50" height="50" relative="1" as="geometry">
            <mxPoint y="40" as="sourcePoint" />
            <mxPoint as="targetPoint" />
          </mxGeometry>
        </mxCell>
        <mxCell id="tqe345nlHWXfy0BIeD9P-18" value="" style="endArrow=none;html=1;rounded=0;strokeWidth=4;strokeColor=#7A7A7A;" parent="tqe345nlHWXfy0BIeD9P-16" edge="1">
          <mxGeometry width="50" height="50" relative="1" as="geometry">
            <mxPoint y="2" as="sourcePoint" />
            <mxPoint x="6.666666666666666" y="2" as="targetPoint" />
          </mxGeometry>
        </mxCell>
        <mxCell id="tqe345nlHWXfy0BIeD9P-19" value="" style="endArrow=none;html=1;rounded=0;strokeWidth=4;strokeColor=#7A7A7A;" parent="tqe345nlHWXfy0BIeD9P-16" edge="1">
          <mxGeometry width="50" height="50" relative="1" as="geometry">
            <mxPoint y="8" as="sourcePoint" />
            <mxPoint x="20" y="8" as="targetPoint" />
          </mxGeometry>
        </mxCell>
        <mxCell id="tqe345nlHWXfy0BIeD9P-20" value="" style="endArrow=none;html=1;rounded=0;strokeWidth=4;strokeColor=#7A7A7A;" parent="tqe345nlHWXfy0BIeD9P-16" edge="1">
          <mxGeometry width="50" height="50" relative="1" as="geometry">
            <mxPoint y="14" as="sourcePoint" />
            <mxPoint x="13.333333333333332" y="14" as="targetPoint" />
          </mxGeometry>
        </mxCell>
        <mxCell id="tqe345nlHWXfy0BIeD9P-21" value="" style="endArrow=none;html=1;rounded=0;strokeWidth=4;strokeColor=#7A7A7A;" parent="tqe345nlHWXfy0BIeD9P-16" edge="1">
          <mxGeometry width="50" height="50" relative="1" as="geometry">
            <mxPoint y="20" as="sourcePoint" />
            <mxPoint x="6.666666666666666" y="20" as="targetPoint" />
          </mxGeometry>
        </mxCell>
        <mxCell id="tqe345nlHWXfy0BIeD9P-22" value="" style="endArrow=none;html=1;rounded=0;strokeWidth=4;strokeColor=#7A7A7A;" parent="tqe345nlHWXfy0BIeD9P-16" edge="1">
          <mxGeometry width="50" height="50" relative="1" as="geometry">
            <mxPoint y="26" as="sourcePoint" />
            <mxPoint x="13.333333333333332" y="26" as="targetPoint" />
          </mxGeometry>
        </mxCell>
        <mxCell id="tqe345nlHWXfy0BIeD9P-23" value="" style="endArrow=none;html=1;rounded=0;strokeWidth=4;strokeColor=#7A7A7A;" parent="tqe345nlHWXfy0BIeD9P-16" edge="1">
          <mxGeometry width="50" height="50" relative="1" as="geometry">
            <mxPoint y="32" as="sourcePoint" />
            <mxPoint x="6.666666666666666" y="32" as="targetPoint" />
          </mxGeometry>
        </mxCell>
        <mxCell id="tqe345nlHWXfy0BIeD9P-24" value="" style="endArrow=none;html=1;rounded=0;strokeWidth=4;strokeColor=#7A7A7A;" parent="tqe345nlHWXfy0BIeD9P-16" edge="1">
          <mxGeometry width="50" height="50" relative="1" as="geometry">
            <mxPoint y="38" as="sourcePoint" />
            <mxPoint x="6.666666666666666" y="38" as="targetPoint" />
          </mxGeometry>
        </mxCell>
        <mxCell id="tqe345nlHWXfy0BIeD9P-25" value="" style="endArrow=classic;html=1;rounded=0;exitX=1;exitY=0.5;exitDx=0;exitDy=0;entryX=0;entryY=0.5;entryDx=0;entryDy=0;" parent="1" target="tqe345nlHWXfy0BIeD9P-14" edge="1">
          <mxGeometry width="50" height="50" relative="1" as="geometry">
            <mxPoint x="609" y="319.76" as="sourcePoint" />
            <mxPoint x="649" y="319.76" as="targetPoint" />
            <Array as="points">
              <mxPoint x="629" y="319.76" />
            </Array>
          </mxGeometry>
        </mxCell>
        <mxCell id="tqe345nlHWXfy0BIeD9P-26" value="" style="shape=sortShape;perimeter=rhombusPerimeter;whiteSpace=wrap;html=1;strokeColor=#7A7A7A;" parent="1" vertex="1">
          <mxGeometry x="629" y="310" width="20" height="20" as="geometry" />
        </mxCell>
        <mxCell id="tqe345nlHWXfy0BIeD9P-27" value="Select" style="text;html=1;strokeColor=none;fillColor=none;align=center;verticalAlign=middle;whiteSpace=wrap;rounded=0;fontSize=10;" parent="1" vertex="1">
          <mxGeometry x="619" y="280" width="40" height="20" as="geometry" />
        </mxCell>
        <mxCell id="tqe345nlHWXfy0BIeD9P-31" value="" style="endArrow=classic;html=1;rounded=0;entryX=0;entryY=0.5;entryDx=0;entryDy=0;exitX=1;exitY=0.5;exitDx=0;exitDy=0;" parent="1" source="tqe345nlHWXfy0BIeD9P-2" edge="1">
          <mxGeometry width="50" height="50" relative="1" as="geometry">
            <mxPoint x="559" y="319.66" as="sourcePoint" />
            <mxPoint x="584" y="319.66" as="targetPoint" />
          </mxGeometry>
        </mxCell>
        <mxCell id="tqe345nlHWXfy0BIeD9P-32" value="Utterance generator" style="text;html=1;strokeColor=none;fillColor=none;align=left;verticalAlign=middle;whiteSpace=wrap;rounded=0;" parent="1" vertex="1">
          <mxGeometry x="320" y="240" width="150" height="20" as="geometry" />
        </mxCell>
      </root>
    </mxGraphModel>
  </diagram>
  <diagram name="persona-generator" id="ab64GjQ9zY21jpHbAOCG">
    <mxGraphModel dx="911" dy="649" grid="1" gridSize="10" guides="1" tooltips="1" connect="1" arrows="1" fold="1" page="1" pageScale="1" pageWidth="1169" pageHeight="827" math="1" shadow="0">
      <root>
        <mxCell id="VlIq39liLYHJUs_PoIYi-0" />
        <mxCell id="VlIq39liLYHJUs_PoIYi-1" parent="VlIq39liLYHJUs_PoIYi-0" />
        <mxCell id="VlIq39liLYHJUs_PoIYi-2" value="" style="rounded=0;whiteSpace=wrap;html=1;fillColor=#dae8fc;strokeColor=#6c8ebf;" parent="VlIq39liLYHJUs_PoIYi-1" vertex="1">
          <mxGeometry x="300" y="360" width="580" height="120" as="geometry" />
        </mxCell>
        <mxCell id="C2N5BpC7VvBEQwuXYdbS-1" value="" style="rounded=0;whiteSpace=wrap;html=1;" parent="VlIq39liLYHJUs_PoIYi-1" vertex="1">
          <mxGeometry x="510" y="390" width="110" height="60" as="geometry" />
        </mxCell>
        <mxCell id="VlIq39liLYHJUs_PoIYi-3" value="Decoder" style="whiteSpace=wrap;html=1;aspect=fixed;fillColor=#A9C4EB;strokeColor=#6c8ebf;" parent="VlIq39liLYHJUs_PoIYi-1" vertex="1">
          <mxGeometry x="640" y="380" width="80" height="80" as="geometry" />
        </mxCell>
        <mxCell id="VlIq39liLYHJUs_PoIYi-4" value="" style="endArrow=classic;html=1;rounded=0;entryX=0;entryY=0.5;entryDx=0;entryDy=0;" parent="VlIq39liLYHJUs_PoIYi-1" target="VlIq39liLYHJUs_PoIYi-3" edge="1">
          <mxGeometry width="50" height="50" relative="1" as="geometry">
            <mxPoint x="620" y="420" as="sourcePoint" />
            <mxPoint x="600" y="475" as="targetPoint" />
            <Array as="points">
              <mxPoint x="630" y="420" />
            </Array>
          </mxGeometry>
        </mxCell>
        <mxCell id="VlIq39liLYHJUs_PoIYi-6" value="" style="edgeStyle=elbowEdgeStyle;elbow=vertical;endArrow=classic;html=1;curved=0;rounded=0;endSize=8;startSize=8;dashed=1;entryX=0.5;entryY=1;entryDx=0;entryDy=0;exitX=0.5;exitY=1;exitDx=0;exitDy=0;" parent="VlIq39liLYHJUs_PoIYi-1" source="VlIq39liLYHJUs_PoIYi-16" target="VlIq39liLYHJUs_PoIYi-8" edge="1">
          <mxGeometry width="50" height="50" relative="1" as="geometry">
            <mxPoint x="770" y="440" as="sourcePoint" />
            <mxPoint x="560" y="435" as="targetPoint" />
            <Array as="points">
              <mxPoint x="660" y="470" />
            </Array>
          </mxGeometry>
        </mxCell>
        <mxCell id="VlIq39liLYHJUs_PoIYi-7" value="$$\mathbf{x}$$" style="rounded=0;whiteSpace=wrap;html=1;fillColor=#d5e8d4;strokeColor=#82b366;" parent="VlIq39liLYHJUs_PoIYi-1" vertex="1">
          <mxGeometry x="310" y="400" width="80" height="40" as="geometry" />
        </mxCell>
        <mxCell id="VlIq39liLYHJUs_PoIYi-8" value="$$\mathbf{y}_{&amp;lt;t}$$" style="rounded=0;whiteSpace=wrap;html=1;fillColor=#9AC7BF;strokeColor=#82b366;" parent="VlIq39liLYHJUs_PoIYi-1" vertex="1">
          <mxGeometry x="572" y="400" width="40" height="40" as="geometry" />
        </mxCell>
        <mxCell id="VlIq39liLYHJUs_PoIYi-9" value="$$\mathbf{x}$$" style="rounded=0;whiteSpace=wrap;html=1;fillColor=#d5e8d4;strokeColor=#82b366;" parent="VlIq39liLYHJUs_PoIYi-1" vertex="1">
          <mxGeometry x="180" y="400" width="80" height="40" as="geometry" />
        </mxCell>
        <mxCell id="VlIq39liLYHJUs_PoIYi-10" value="$$\mathbf{p} = (y_1, \cdots, y_M)$$" style="rounded=0;whiteSpace=wrap;html=1;fillColor=#9AC7BF;strokeColor=#82b366;" parent="VlIq39liLYHJUs_PoIYi-1" vertex="1">
          <mxGeometry x="920" y="400" width="110" height="40" as="geometry" />
        </mxCell>
        <mxCell id="VlIq39liLYHJUs_PoIYi-12" value="" style="endArrow=classic;html=1;rounded=0;entryX=0;entryY=0.5;entryDx=0;entryDy=0;exitX=1;exitY=0.5;exitDx=0;exitDy=0;" parent="VlIq39liLYHJUs_PoIYi-1" source="VlIq39liLYHJUs_PoIYi-2" target="VlIq39liLYHJUs_PoIYi-10" edge="1">
          <mxGeometry width="50" height="50" relative="1" as="geometry">
            <mxPoint x="370" y="240" as="sourcePoint" />
            <mxPoint x="410" y="240" as="targetPoint" />
          </mxGeometry>
        </mxCell>
        <mxCell id="VlIq39liLYHJUs_PoIYi-13" value="Persona generator" style="text;html=1;strokeColor=none;fillColor=none;align=left;verticalAlign=middle;whiteSpace=wrap;rounded=0;" parent="VlIq39liLYHJUs_PoIYi-1" vertex="1">
          <mxGeometry x="300" y="340" width="220" height="20" as="geometry" />
        </mxCell>
        <mxCell id="VlIq39liLYHJUs_PoIYi-14" value="Persona" style="text;html=1;strokeColor=none;fillColor=none;align=left;verticalAlign=middle;whiteSpace=wrap;rounded=0;" parent="VlIq39liLYHJUs_PoIYi-1" vertex="1">
          <mxGeometry x="920" y="380" width="110" height="20" as="geometry" />
        </mxCell>
        <mxCell id="VlIq39liLYHJUs_PoIYi-15" value="Generator input" style="text;html=1;strokeColor=none;fillColor=none;align=left;verticalAlign=middle;whiteSpace=wrap;rounded=0;" parent="VlIq39liLYHJUs_PoIYi-1" vertex="1">
          <mxGeometry x="180" y="380" width="90" height="20" as="geometry" />
        </mxCell>
        <mxCell id="VlIq39liLYHJUs_PoIYi-16" value="$$y_{t}$$" style="rounded=0;whiteSpace=wrap;html=1;fillColor=#9AC7BF;strokeColor=#82b366;" parent="VlIq39liLYHJUs_PoIYi-1" vertex="1">
          <mxGeometry x="830" y="400" width="40" height="40" as="geometry" />
        </mxCell>
        <mxCell id="OXBlVv-GKmUWvAqq30hq-1" value="Encoder" style="whiteSpace=wrap;html=1;aspect=fixed;fillColor=#A9C4EB;strokeColor=#6c8ebf;" parent="VlIq39liLYHJUs_PoIYi-1" vertex="1">
          <mxGeometry x="410" y="380" width="80" height="80" as="geometry" />
        </mxCell>
        <mxCell id="OXBlVv-GKmUWvAqq30hq-14" value="" style="group" parent="VlIq39liLYHJUs_PoIYi-1" vertex="1" connectable="0">
          <mxGeometry x="750" y="400" width="20" height="40" as="geometry" />
        </mxCell>
        <mxCell id="OXBlVv-GKmUWvAqq30hq-3" value="" style="endArrow=none;html=1;rounded=0;strokeColor=#7A7A7A;" parent="OXBlVv-GKmUWvAqq30hq-14" edge="1">
          <mxGeometry width="50" height="50" relative="1" as="geometry">
            <mxPoint y="40" as="sourcePoint" />
            <mxPoint as="targetPoint" />
          </mxGeometry>
        </mxCell>
        <mxCell id="OXBlVv-GKmUWvAqq30hq-5" value="" style="endArrow=none;html=1;rounded=0;strokeWidth=4;strokeColor=#7A7A7A;" parent="OXBlVv-GKmUWvAqq30hq-14" edge="1">
          <mxGeometry width="50" height="50" relative="1" as="geometry">
            <mxPoint y="2" as="sourcePoint" />
            <mxPoint x="6.666666666666666" y="2" as="targetPoint" />
          </mxGeometry>
        </mxCell>
        <mxCell id="OXBlVv-GKmUWvAqq30hq-6" value="" style="endArrow=none;html=1;rounded=0;strokeWidth=4;strokeColor=#7A7A7A;" parent="OXBlVv-GKmUWvAqq30hq-14" edge="1">
          <mxGeometry width="50" height="50" relative="1" as="geometry">
            <mxPoint y="8" as="sourcePoint" />
            <mxPoint x="20" y="8" as="targetPoint" />
          </mxGeometry>
        </mxCell>
        <mxCell id="OXBlVv-GKmUWvAqq30hq-7" value="" style="endArrow=none;html=1;rounded=0;strokeWidth=4;strokeColor=#7A7A7A;" parent="OXBlVv-GKmUWvAqq30hq-14" edge="1">
          <mxGeometry width="50" height="50" relative="1" as="geometry">
            <mxPoint y="14" as="sourcePoint" />
            <mxPoint x="13.333333333333332" y="14" as="targetPoint" />
          </mxGeometry>
        </mxCell>
        <mxCell id="OXBlVv-GKmUWvAqq30hq-8" value="" style="endArrow=none;html=1;rounded=0;strokeWidth=4;strokeColor=#7A7A7A;" parent="OXBlVv-GKmUWvAqq30hq-14" edge="1">
          <mxGeometry width="50" height="50" relative="1" as="geometry">
            <mxPoint y="20" as="sourcePoint" />
            <mxPoint x="6.666666666666666" y="20" as="targetPoint" />
          </mxGeometry>
        </mxCell>
        <mxCell id="OXBlVv-GKmUWvAqq30hq-9" value="" style="endArrow=none;html=1;rounded=0;strokeWidth=4;strokeColor=#7A7A7A;" parent="OXBlVv-GKmUWvAqq30hq-14" edge="1">
          <mxGeometry width="50" height="50" relative="1" as="geometry">
            <mxPoint y="26" as="sourcePoint" />
            <mxPoint x="13.333333333333332" y="26" as="targetPoint" />
          </mxGeometry>
        </mxCell>
        <mxCell id="OXBlVv-GKmUWvAqq30hq-12" value="" style="endArrow=none;html=1;rounded=0;strokeWidth=4;strokeColor=#7A7A7A;" parent="OXBlVv-GKmUWvAqq30hq-14" edge="1">
          <mxGeometry width="50" height="50" relative="1" as="geometry">
            <mxPoint y="32" as="sourcePoint" />
            <mxPoint x="6.666666666666666" y="32" as="targetPoint" />
          </mxGeometry>
        </mxCell>
        <mxCell id="OXBlVv-GKmUWvAqq30hq-13" value="" style="endArrow=none;html=1;rounded=0;strokeWidth=4;strokeColor=#7A7A7A;" parent="OXBlVv-GKmUWvAqq30hq-14" edge="1">
          <mxGeometry width="50" height="50" relative="1" as="geometry">
            <mxPoint y="38" as="sourcePoint" />
            <mxPoint x="6.666666666666666" y="38" as="targetPoint" />
          </mxGeometry>
        </mxCell>
        <mxCell id="OXBlVv-GKmUWvAqq30hq-18" value="" style="endArrow=classic;html=1;rounded=0;exitX=1;exitY=0.5;exitDx=0;exitDy=0;entryX=0;entryY=0.5;entryDx=0;entryDy=0;" parent="VlIq39liLYHJUs_PoIYi-1" target="VlIq39liLYHJUs_PoIYi-16" edge="1">
          <mxGeometry width="50" height="50" relative="1" as="geometry">
            <mxPoint x="770" y="419.76" as="sourcePoint" />
            <mxPoint x="810" y="419.76" as="targetPoint" />
            <Array as="points">
              <mxPoint x="790" y="419.76" />
            </Array>
          </mxGeometry>
        </mxCell>
        <mxCell id="OXBlVv-GKmUWvAqq30hq-15" value="" style="shape=sortShape;perimeter=rhombusPerimeter;whiteSpace=wrap;html=1;strokeColor=#7A7A7A;" parent="VlIq39liLYHJUs_PoIYi-1" vertex="1">
          <mxGeometry x="790" y="410" width="20" height="20" as="geometry" />
        </mxCell>
        <mxCell id="OXBlVv-GKmUWvAqq30hq-19" value="Select" style="text;html=1;strokeColor=none;fillColor=none;align=center;verticalAlign=middle;whiteSpace=wrap;rounded=0;fontSize=10;" parent="VlIq39liLYHJUs_PoIYi-1" vertex="1">
          <mxGeometry x="780" y="380" width="40" height="20" as="geometry" />
        </mxCell>
        <mxCell id="OXBlVv-GKmUWvAqq30hq-20" value="$$E(\mathbf{x})$$" style="rounded=0;whiteSpace=wrap;html=1;fillColor=#d5e8d4;strokeColor=#82b366;" parent="VlIq39liLYHJUs_PoIYi-1" vertex="1">
          <mxGeometry x="520" y="400" width="40" height="40" as="geometry" />
        </mxCell>
        <mxCell id="OXBlVv-GKmUWvAqq30hq-22" value="" style="endArrow=classic;html=1;rounded=0;entryX=0;entryY=0.5;entryDx=0;entryDy=0;exitX=1;exitY=0.5;exitDx=0;exitDy=0;" parent="VlIq39liLYHJUs_PoIYi-1" source="VlIq39liLYHJUs_PoIYi-7" target="OXBlVv-GKmUWvAqq30hq-1" edge="1">
          <mxGeometry width="50" height="50" relative="1" as="geometry">
            <mxPoint x="355" y="450" as="sourcePoint" />
            <mxPoint x="380" y="450" as="targetPoint" />
          </mxGeometry>
        </mxCell>
        <mxCell id="OXBlVv-GKmUWvAqq30hq-24" value="" style="endArrow=classic;html=1;rounded=0;entryX=0;entryY=0.5;entryDx=0;entryDy=0;exitX=1;exitY=0.5;exitDx=0;exitDy=0;" parent="VlIq39liLYHJUs_PoIYi-1" source="OXBlVv-GKmUWvAqq30hq-1" target="OXBlVv-GKmUWvAqq30hq-20" edge="1">
          <mxGeometry width="50" height="50" relative="1" as="geometry">
            <mxPoint x="595" y="430" as="sourcePoint" />
            <mxPoint x="620" y="430" as="targetPoint" />
          </mxGeometry>
        </mxCell>
        <mxCell id="OXBlVv-GKmUWvAqq30hq-25" value="" style="endArrow=classic;html=1;rounded=0;entryX=0;entryY=0.5;entryDx=0;entryDy=0;exitX=1;exitY=0.5;exitDx=0;exitDy=0;" parent="VlIq39liLYHJUs_PoIYi-1" source="VlIq39liLYHJUs_PoIYi-3" edge="1">
          <mxGeometry width="50" height="50" relative="1" as="geometry">
            <mxPoint x="720" y="419.66" as="sourcePoint" />
            <mxPoint x="745" y="419.66" as="targetPoint" />
          </mxGeometry>
        </mxCell>
        <mxCell id="C2N5BpC7VvBEQwuXYdbS-2" value="" style="endArrow=classic;html=1;rounded=0;entryX=0;entryY=0.5;entryDx=0;entryDy=0;exitX=1;exitY=0.5;exitDx=0;exitDy=0;" parent="VlIq39liLYHJUs_PoIYi-1" source="VlIq39liLYHJUs_PoIYi-9" target="VlIq39liLYHJUs_PoIYi-2" edge="1">
          <mxGeometry width="50" height="50" relative="1" as="geometry">
            <mxPoint x="220" y="490" as="sourcePoint" />
            <mxPoint x="250" y="490" as="targetPoint" />
          </mxGeometry>
        </mxCell>
        <mxCell id="kxX2pfbGmYrppKO1Ufu8-0" value="" style="rounded=0;whiteSpace=wrap;html=1;fillColor=#dae8fc;strokeColor=#6c8ebf;" parent="VlIq39liLYHJUs_PoIYi-1" vertex="1">
          <mxGeometry x="300" y="200" width="580" height="120" as="geometry" />
        </mxCell>
        <mxCell id="kxX2pfbGmYrppKO1Ufu8-2" value="Classifier" style="whiteSpace=wrap;html=1;aspect=fixed;fillColor=#A9C4EB;strokeColor=#6c8ebf;" parent="VlIq39liLYHJUs_PoIYi-1" vertex="1">
          <mxGeometry x="590" y="220" width="80" height="80" as="geometry" />
        </mxCell>
        <mxCell id="kxX2pfbGmYrppKO1Ufu8-5" value="$$\mathbf{x}$$" style="rounded=0;whiteSpace=wrap;html=1;fillColor=#d5e8d4;strokeColor=#82b366;" parent="VlIq39liLYHJUs_PoIYi-1" vertex="1">
          <mxGeometry x="310" y="240" width="80" height="40" as="geometry" />
        </mxCell>
        <mxCell id="kxX2pfbGmYrppKO1Ufu8-7" value="$$\mathbf{x}$$" style="rounded=0;whiteSpace=wrap;html=1;fillColor=#d5e8d4;strokeColor=#82b366;" parent="VlIq39liLYHJUs_PoIYi-1" vertex="1">
          <mxGeometry x="180" y="240" width="80" height="40" as="geometry" />
        </mxCell>
        <mxCell id="kxX2pfbGmYrppKO1Ufu8-8" value="$$\mathbf{p} = \mathbf{x} \text{ or } \texttt{nofact}$$" style="rounded=0;whiteSpace=wrap;html=1;fillColor=#9AC7BF;strokeColor=#82b366;" parent="VlIq39liLYHJUs_PoIYi-1" vertex="1">
          <mxGeometry x="920" y="240" width="110" height="40" as="geometry" />
        </mxCell>
        <mxCell id="kxX2pfbGmYrppKO1Ufu8-9" value="" style="endArrow=classic;html=1;rounded=0;entryX=0;entryY=0.5;entryDx=0;entryDy=0;exitX=1;exitY=0.5;exitDx=0;exitDy=0;" parent="VlIq39liLYHJUs_PoIYi-1" source="kxX2pfbGmYrppKO1Ufu8-0" target="kxX2pfbGmYrppKO1Ufu8-8" edge="1">
          <mxGeometry width="50" height="50" relative="1" as="geometry">
            <mxPoint x="370" y="80" as="sourcePoint" />
            <mxPoint x="410" y="80" as="targetPoint" />
          </mxGeometry>
        </mxCell>
        <mxCell id="kxX2pfbGmYrppKO1Ufu8-10" value="Persona classifier" style="text;html=1;strokeColor=none;fillColor=none;align=left;verticalAlign=middle;whiteSpace=wrap;rounded=0;" parent="VlIq39liLYHJUs_PoIYi-1" vertex="1">
          <mxGeometry x="300" y="180" width="150" height="20" as="geometry" />
        </mxCell>
        <mxCell id="kxX2pfbGmYrppKO1Ufu8-11" value="Persona" style="text;html=1;strokeColor=none;fillColor=none;align=left;verticalAlign=middle;whiteSpace=wrap;rounded=0;" parent="VlIq39liLYHJUs_PoIYi-1" vertex="1">
          <mxGeometry x="920" y="220" width="110" height="20" as="geometry" />
        </mxCell>
        <mxCell id="kxX2pfbGmYrppKO1Ufu8-12" value="Generator input" style="text;html=1;strokeColor=none;fillColor=none;align=left;verticalAlign=middle;whiteSpace=wrap;rounded=0;" parent="VlIq39liLYHJUs_PoIYi-1" vertex="1">
          <mxGeometry x="180" y="220" width="90" height="20" as="geometry" />
        </mxCell>
        <mxCell id="kxX2pfbGmYrppKO1Ufu8-14" value="Encoder" style="whiteSpace=wrap;html=1;aspect=fixed;fillColor=#A9C4EB;strokeColor=#6c8ebf;" parent="VlIq39liLYHJUs_PoIYi-1" vertex="1">
          <mxGeometry x="410" y="220" width="80" height="80" as="geometry" />
        </mxCell>
        <mxCell id="kxX2pfbGmYrppKO1Ufu8-24" value="" style="endArrow=classic;html=1;rounded=0;exitX=1;exitY=0.5;exitDx=0;exitDy=0;entryX=0;entryY=0.5;entryDx=0;entryDy=0;" parent="VlIq39liLYHJUs_PoIYi-1" edge="1">
          <mxGeometry width="50" height="50" relative="1" as="geometry">
            <mxPoint x="770" y="259.76" as="sourcePoint" />
            <mxPoint x="830" y="260" as="targetPoint" />
            <Array as="points">
              <mxPoint x="790" y="259.76" />
            </Array>
          </mxGeometry>
        </mxCell>
        <mxCell id="kxX2pfbGmYrppKO1Ufu8-25" value="" style="shape=sortShape;perimeter=rhombusPerimeter;whiteSpace=wrap;html=1;strokeColor=#7A7A7A;" parent="VlIq39liLYHJUs_PoIYi-1" vertex="1">
          <mxGeometry x="790" y="250" width="20" height="20" as="geometry" />
        </mxCell>
        <mxCell id="kxX2pfbGmYrppKO1Ufu8-26" value="Select" style="text;html=1;strokeColor=none;fillColor=none;align=center;verticalAlign=middle;whiteSpace=wrap;rounded=0;fontSize=10;" parent="VlIq39liLYHJUs_PoIYi-1" vertex="1">
          <mxGeometry x="780" y="220" width="40" height="20" as="geometry" />
        </mxCell>
        <mxCell id="kxX2pfbGmYrppKO1Ufu8-27" value="$$E(\mathbf{x})$$" style="rounded=0;whiteSpace=wrap;html=1;fillColor=#d5e8d4;strokeColor=#82b366;" parent="VlIq39liLYHJUs_PoIYi-1" vertex="1">
          <mxGeometry x="520" y="240" width="40" height="40" as="geometry" />
        </mxCell>
        <mxCell id="kxX2pfbGmYrppKO1Ufu8-28" value="" style="endArrow=classic;html=1;rounded=0;entryX=0;entryY=0.5;entryDx=0;entryDy=0;exitX=1;exitY=0.5;exitDx=0;exitDy=0;" parent="VlIq39liLYHJUs_PoIYi-1" source="kxX2pfbGmYrppKO1Ufu8-5" target="kxX2pfbGmYrppKO1Ufu8-14" edge="1">
          <mxGeometry width="50" height="50" relative="1" as="geometry">
            <mxPoint x="355" y="290" as="sourcePoint" />
            <mxPoint x="380" y="290" as="targetPoint" />
          </mxGeometry>
        </mxCell>
        <mxCell id="kxX2pfbGmYrppKO1Ufu8-29" value="" style="endArrow=classic;html=1;rounded=0;entryX=0;entryY=0.5;entryDx=0;entryDy=0;exitX=1;exitY=0.5;exitDx=0;exitDy=0;" parent="VlIq39liLYHJUs_PoIYi-1" source="kxX2pfbGmYrppKO1Ufu8-14" target="kxX2pfbGmYrppKO1Ufu8-27" edge="1">
          <mxGeometry width="50" height="50" relative="1" as="geometry">
            <mxPoint x="595" y="270" as="sourcePoint" />
            <mxPoint x="620" y="270" as="targetPoint" />
            <Array as="points">
              <mxPoint x="500" y="260" />
            </Array>
          </mxGeometry>
        </mxCell>
        <mxCell id="kxX2pfbGmYrppKO1Ufu8-30" value="" style="endArrow=classic;html=1;rounded=0;exitX=1;exitY=0.5;exitDx=0;exitDy=0;" parent="VlIq39liLYHJUs_PoIYi-1" source="kxX2pfbGmYrppKO1Ufu8-2" edge="1">
          <mxGeometry width="50" height="50" relative="1" as="geometry">
            <mxPoint x="720" y="259.66" as="sourcePoint" />
            <mxPoint x="700" y="260" as="targetPoint" />
          </mxGeometry>
        </mxCell>
        <mxCell id="kxX2pfbGmYrppKO1Ufu8-31" value="" style="endArrow=classic;html=1;rounded=0;entryX=0;entryY=0.5;entryDx=0;entryDy=0;exitX=1;exitY=0.5;exitDx=0;exitDy=0;" parent="VlIq39liLYHJUs_PoIYi-1" source="kxX2pfbGmYrppKO1Ufu8-7" target="kxX2pfbGmYrppKO1Ufu8-0" edge="1">
          <mxGeometry width="50" height="50" relative="1" as="geometry">
            <mxPoint x="220" y="330" as="sourcePoint" />
            <mxPoint x="250" y="330" as="targetPoint" />
          </mxGeometry>
        </mxCell>
        <mxCell id="kxX2pfbGmYrppKO1Ufu8-34" value="" style="group" parent="VlIq39liLYHJUs_PoIYi-1" vertex="1" connectable="0">
          <mxGeometry x="700" y="240" width="61" height="40" as="geometry" />
        </mxCell>
        <mxCell id="kxX2pfbGmYrppKO1Ufu8-32" value="$$\texttt{fact}$$" style="text;html=1;strokeColor=none;fillColor=none;align=right;verticalAlign=middle;whiteSpace=wrap;rounded=0;fontSize=10;" parent="kxX2pfbGmYrppKO1Ufu8-34" vertex="1">
          <mxGeometry width="40" height="20" as="geometry" />
        </mxCell>
        <mxCell id="kxX2pfbGmYrppKO1Ufu8-33" value="$$\texttt{nofact}$$" style="text;html=1;strokeColor=none;fillColor=none;align=right;verticalAlign=middle;whiteSpace=wrap;rounded=0;fontSize=10;" parent="kxX2pfbGmYrppKO1Ufu8-34" vertex="1">
          <mxGeometry y="20" width="40" height="20" as="geometry" />
        </mxCell>
        <mxCell id="kxX2pfbGmYrppKO1Ufu8-16" value="" style="endArrow=none;html=1;rounded=0;strokeColor=#7A7A7A;" parent="kxX2pfbGmYrppKO1Ufu8-34" edge="1">
          <mxGeometry width="50" height="50" relative="1" as="geometry">
            <mxPoint x="41" y="40" as="sourcePoint" />
            <mxPoint x="41" as="targetPoint" />
          </mxGeometry>
        </mxCell>
        <mxCell id="kxX2pfbGmYrppKO1Ufu8-18" value="" style="endArrow=none;html=1;rounded=0;strokeWidth=4;strokeColor=#7A7A7A;" parent="kxX2pfbGmYrppKO1Ufu8-34" edge="1">
          <mxGeometry width="50" height="50" relative="1" as="geometry">
            <mxPoint x="41" y="11.710000000000036" as="sourcePoint" />
            <mxPoint x="61" y="11.710000000000036" as="targetPoint" />
          </mxGeometry>
        </mxCell>
        <mxCell id="kxX2pfbGmYrppKO1Ufu8-22" value="" style="endArrow=none;html=1;rounded=0;strokeWidth=4;strokeColor=#7A7A7A;" parent="kxX2pfbGmYrppKO1Ufu8-34" edge="1">
          <mxGeometry width="50" height="50" relative="1" as="geometry">
            <mxPoint x="41" y="32" as="sourcePoint" />
            <mxPoint x="47.66666666666663" y="32" as="targetPoint" />
          </mxGeometry>
        </mxCell>
        <mxCell id="kxX2pfbGmYrppKO1Ufu8-35" value="" style="endArrow=classic;html=1;rounded=0;entryX=0;entryY=0.5;entryDx=0;entryDy=0;exitX=1;exitY=0.5;exitDx=0;exitDy=0;" parent="VlIq39liLYHJUs_PoIYi-1" source="kxX2pfbGmYrppKO1Ufu8-27" target="kxX2pfbGmYrppKO1Ufu8-2" edge="1">
          <mxGeometry width="50" height="50" relative="1" as="geometry">
            <mxPoint x="500" y="270" as="sourcePoint" />
            <mxPoint x="530" y="270" as="targetPoint" />
            <Array as="points" />
          </mxGeometry>
        </mxCell>
        <mxCell id="kxX2pfbGmYrppKO1Ufu8-36" value="$$\mathbf{x}$$" style="text;html=1;strokeColor=none;fillColor=none;align=center;verticalAlign=middle;whiteSpace=wrap;rounded=0;fontSize=10;" parent="VlIq39liLYHJUs_PoIYi-1" vertex="1">
          <mxGeometry x="830" y="240" width="40" height="20" as="geometry" />
        </mxCell>
        <mxCell id="kxX2pfbGmYrppKO1Ufu8-37" value="$$\texttt{nofact}$$" style="text;html=1;strokeColor=none;fillColor=none;align=center;verticalAlign=middle;whiteSpace=wrap;rounded=0;fontSize=10;" parent="VlIq39liLYHJUs_PoIYi-1" vertex="1">
          <mxGeometry x="830" y="260" width="40" height="20" as="geometry" />
        </mxCell>
      </root>
    </mxGraphModel>
  </diagram>
  <diagram name="gen-experiments" id="1w-ATxlC77_0xpjdE35k">
    <mxGraphModel dx="911" dy="649" grid="1" gridSize="10" guides="1" tooltips="1" connect="1" arrows="1" fold="1" page="1" pageScale="1" pageWidth="1169" pageHeight="827" math="1" shadow="0">
      <root>
        <mxCell id="0" />
        <mxCell id="1" parent="0" />
        <mxCell id="YHZKoxODymIakpiEQp67-2" value="" style="rounded=0;whiteSpace=wrap;html=1;" parent="1" vertex="1">
          <mxGeometry x="220" y="360" width="800" height="119" as="geometry" />
        </mxCell>
        <mxCell id="YHZKoxODymIakpiEQp67-1" value="" style="rounded=0;whiteSpace=wrap;html=1;" parent="1" vertex="1">
          <mxGeometry x="220" y="510" width="800" height="120" as="geometry" />
        </mxCell>
        <mxCell id="m6a8vdt9xj0aYVUtu1R2-38" value="" style="rounded=0;whiteSpace=wrap;html=1;fillColor=#d5e8d4;strokeColor=#82b366;" parent="1" vertex="1">
          <mxGeometry x="360" y="390" width="320" height="60" as="geometry" />
        </mxCell>
        <mxCell id="vx7e3LkDdVtEjiFvMovs-27" value="" style="rounded=0;whiteSpace=wrap;html=1;fillColor=#d5e8d4;strokeColor=#82b366;" parent="1" vertex="1">
          <mxGeometry x="600" y="540" width="200" height="60" as="geometry" />
        </mxCell>
        <mxCell id="m6a8vdt9xj0aYVUtu1R2-1" value="Utterance generator" style="whiteSpace=wrap;html=1;aspect=fixed;fillColor=#dae8fc;strokeColor=#6c8ebf;" parent="1" vertex="1">
          <mxGeometry x="720" y="380" width="80" height="80" as="geometry" />
        </mxCell>
        <mxCell id="m6a8vdt9xj0aYVUtu1R2-39" value="" style="endArrow=classic;html=1;rounded=0;entryX=0;entryY=0.5;entryDx=0;entryDy=0;exitX=1;exitY=0.5;exitDx=0;exitDy=0;" parent="1" source="m6a8vdt9xj0aYVUtu1R2-38" target="m6a8vdt9xj0aYVUtu1R2-1" edge="1">
          <mxGeometry width="50" height="50" relative="1" as="geometry">
            <mxPoint x="670" y="525" as="sourcePoint" />
            <mxPoint x="720" y="475" as="targetPoint" />
          </mxGeometry>
        </mxCell>
        <mxCell id="m6a8vdt9xj0aYVUtu1R2-56" value="" style="endArrow=classic;html=1;rounded=0;exitX=1;exitY=0.5;exitDx=0;exitDy=0;entryX=0;entryY=0.5;entryDx=0;entryDy=0;" parent="1" source="m6a8vdt9xj0aYVUtu1R2-1" target="vx7e3LkDdVtEjiFvMovs-31" edge="1">
          <mxGeometry width="50" height="50" relative="1" as="geometry">
            <mxPoint x="810" y="419.5" as="sourcePoint" />
            <mxPoint x="840" y="420" as="targetPoint" />
          </mxGeometry>
        </mxCell>
        <mxCell id="vx7e3LkDdVtEjiFvMovs-9" value="Persona extractor" style="whiteSpace=wrap;html=1;aspect=fixed;fillColor=#dae8fc;strokeColor=#6c8ebf;" parent="1" vertex="1">
          <mxGeometry x="480" y="530" width="80" height="80" as="geometry" />
        </mxCell>
        <mxCell id="vx7e3LkDdVtEjiFvMovs-10" value="Utterance generator" style="whiteSpace=wrap;html=1;aspect=fixed;fillColor=#dae8fc;strokeColor=#6c8ebf;" parent="1" vertex="1">
          <mxGeometry x="840" y="530" width="80" height="80" as="geometry" />
        </mxCell>
        <mxCell id="vx7e3LkDdVtEjiFvMovs-11" value="" style="endArrow=classic;html=1;rounded=0;entryX=0;entryY=0.5;entryDx=0;entryDy=0;exitX=1;exitY=0.5;exitDx=0;exitDy=0;" parent="1" source="vx7e3LkDdVtEjiFvMovs-27" target="vx7e3LkDdVtEjiFvMovs-10" edge="1">
          <mxGeometry width="50" height="50" relative="1" as="geometry">
            <mxPoint x="810" y="420" as="sourcePoint" />
            <mxPoint x="850" y="420" as="targetPoint" />
          </mxGeometry>
        </mxCell>
        <mxCell id="vx7e3LkDdVtEjiFvMovs-12" value="" style="endArrow=classic;html=1;rounded=0;entryX=0;entryY=0.5;entryDx=0;entryDy=0;exitX=1;exitY=0.5;exitDx=0;exitDy=0;" parent="1" source="vx7e3LkDdVtEjiFvMovs-4" target="vx7e3LkDdVtEjiFvMovs-9" edge="1">
          <mxGeometry width="50" height="50" relative="1" as="geometry">
            <mxPoint x="450" y="630" as="sourcePoint" />
            <mxPoint x="490" y="630" as="targetPoint" />
          </mxGeometry>
        </mxCell>
        <mxCell id="vx7e3LkDdVtEjiFvMovs-13" value="" style="edgeStyle=segmentEdgeStyle;endArrow=classic;html=1;curved=0;rounded=0;endSize=8;startSize=8;" parent="1" edge="1">
          <mxGeometry width="50" height="50" relative="1" as="geometry">
            <mxPoint x="580" y="620" as="sourcePoint" />
            <mxPoint x="720" y="587.5" as="targetPoint" />
          </mxGeometry>
        </mxCell>
        <mxCell id="vx7e3LkDdVtEjiFvMovs-14" value="" style="endArrow=classic;html=1;rounded=0;entryX=0.5;entryY=1;entryDx=0;entryDy=0;" parent="1" target="vx7e3LkDdVtEjiFvMovs-21" edge="1">
          <mxGeometry width="50" height="50" relative="1" as="geometry">
            <mxPoint x="680" y="620" as="sourcePoint" />
            <mxPoint x="680" y="660" as="targetPoint" />
          </mxGeometry>
        </mxCell>
        <mxCell id="vx7e3LkDdVtEjiFvMovs-15" value="" style="shape=partialRectangle;whiteSpace=wrap;html=1;top=0;left=0;fillColor=none;flipV=1;" parent="1" vertex="1">
          <mxGeometry x="560" y="570" width="20" height="50" as="geometry" />
        </mxCell>
        <mxCell id="vx7e3LkDdVtEjiFvMovs-17" value="" style="endArrow=classic;html=1;rounded=0;exitX=1;exitY=0.5;exitDx=0;exitDy=0;entryX=0;entryY=0.5;entryDx=0;entryDy=0;" parent="1" target="vx7e3LkDdVtEjiFvMovs-33" edge="1">
          <mxGeometry width="50" height="50" relative="1" as="geometry">
            <mxPoint x="920" y="570.5" as="sourcePoint" />
            <mxPoint x="960" y="570.5" as="targetPoint" />
          </mxGeometry>
        </mxCell>
        <mxCell id="vx7e3LkDdVtEjiFvMovs-21" value="$$P^{\mathrm{E}}_{\mathrm{self}}$$" style="rounded=0;whiteSpace=wrap;html=1;fillColor=#fff2cc;strokeColor=#d6b656;" parent="1" vertex="1">
          <mxGeometry x="660" y="550" width="40" height="40" as="geometry" />
        </mxCell>
        <mxCell id="vx7e3LkDdVtEjiFvMovs-22" value="$$P^{\mathrm{E}}_{\mathrm{other}}$$" style="rounded=0;whiteSpace=wrap;html=1;fillColor=#fff2cc;strokeColor=#d6b656;" parent="1" vertex="1">
          <mxGeometry x="700" y="550" width="40" height="40" as="geometry" />
        </mxCell>
        <mxCell id="vx7e3LkDdVtEjiFvMovs-23" value="$$P_{\mathrm{self}}$$" style="rounded=0;whiteSpace=wrap;html=1;fillColor=#fff2cc;strokeColor=#d6b656;" parent="1" vertex="1">
          <mxGeometry x="620" y="550" width="40" height="40" as="geometry" />
        </mxCell>
        <mxCell id="vx7e3LkDdVtEjiFvMovs-24" value="" style="rounded=0;whiteSpace=wrap;html=1;fillColor=#e1d5e7;strokeColor=#9673a6;" parent="1" vertex="1">
          <mxGeometry x="610" y="550" width="10" height="40" as="geometry" />
        </mxCell>
        <mxCell id="vx7e3LkDdVtEjiFvMovs-25" value="" style="rounded=0;whiteSpace=wrap;html=1;fillColor=#e1d5e7;strokeColor=#9673a6;" parent="1" vertex="1">
          <mxGeometry x="740" y="550" width="10" height="40" as="geometry" />
        </mxCell>
        <mxCell id="vx7e3LkDdVtEjiFvMovs-26" value="$$S_T$$" style="rounded=0;whiteSpace=wrap;html=1;container=0;strokeColor=#7A7A7A;" parent="1" vertex="1">
          <mxGeometry x="750" y="550" width="40" height="40" as="geometry" />
        </mxCell>
        <mxCell id="m6a8vdt9xj0aYVUtu1R2-25" value="$$S_1$$" style="rounded=0;whiteSpace=wrap;html=1;strokeColor=#7A7A7A;" parent="1" vertex="1">
          <mxGeometry x="380" y="400" width="40" height="40" as="geometry" />
        </mxCell>
        <mxCell id="m6a8vdt9xj0aYVUtu1R2-26" value="$$S_2$$" style="rounded=0;whiteSpace=wrap;html=1;strokeColor=#7A7A7A;" parent="1" vertex="1">
          <mxGeometry x="430" y="400" width="40" height="40" as="geometry" />
        </mxCell>
        <mxCell id="m6a8vdt9xj0aYVUtu1R2-27" value="" style="rounded=0;whiteSpace=wrap;html=1;fillColor=#e1d5e7;strokeColor=#9673a6;" parent="1" vertex="1">
          <mxGeometry x="420" y="400" width="10" height="40" as="geometry" />
        </mxCell>
        <mxCell id="m6a8vdt9xj0aYVUtu1R2-28" value="" style="rounded=0;whiteSpace=wrap;html=1;fillColor=#e1d5e7;strokeColor=#9673a6;" parent="1" vertex="1">
          <mxGeometry x="370" y="400" width="10" height="40" as="geometry" />
        </mxCell>
        <mxCell id="m6a8vdt9xj0aYVUtu1R2-29" value="" style="rounded=0;whiteSpace=wrap;html=1;fillColor=#e1d5e7;strokeColor=#9673a6;" parent="1" vertex="1">
          <mxGeometry x="470" y="400" width="10" height="40" as="geometry" />
        </mxCell>
        <mxCell id="m6a8vdt9xj0aYVUtu1R2-33" value="" style="rounded=0;whiteSpace=wrap;html=1;fillColor=#e1d5e7;strokeColor=#9673a6;" parent="1" vertex="1">
          <mxGeometry x="520" y="400" width="10" height="40" as="geometry" />
        </mxCell>
        <mxCell id="m6a8vdt9xj0aYVUtu1R2-34" value="$$\cdots$$" style="text;html=1;strokeColor=none;fillColor=none;align=center;verticalAlign=middle;whiteSpace=wrap;rounded=0;" parent="1" vertex="1">
          <mxGeometry x="480" y="400" width="40" height="40" as="geometry" />
        </mxCell>
        <mxCell id="vx7e3LkDdVtEjiFvMovs-28" value="Generator input" style="text;html=1;strokeColor=none;fillColor=none;align=left;verticalAlign=middle;whiteSpace=wrap;rounded=0;" parent="1" vertex="1">
          <mxGeometry x="360" y="370" width="90" height="20" as="geometry" />
        </mxCell>
        <mxCell id="vx7e3LkDdVtEjiFvMovs-30" value="Generator input" style="text;html=1;strokeColor=none;fillColor=none;align=left;verticalAlign=middle;whiteSpace=wrap;rounded=0;" parent="1" vertex="1">
          <mxGeometry x="600" y="520" width="90" height="20" as="geometry" />
        </mxCell>
        <mxCell id="vx7e3LkDdVtEjiFvMovs-31" value="$$\mathbf{u}$$" style="rounded=0;whiteSpace=wrap;html=1;fillColor=#9AC7BF;strokeColor=#82b366;" parent="1" vertex="1">
          <mxGeometry x="840" y="400" width="40" height="40" as="geometry" />
        </mxCell>
        <mxCell id="vx7e3LkDdVtEjiFvMovs-32" value="Next utterance" style="text;html=1;strokeColor=none;fillColor=none;align=left;verticalAlign=bottom;whiteSpace=wrap;rounded=0;" parent="1" vertex="1">
          <mxGeometry x="840" y="360" width="60" height="40" as="geometry" />
        </mxCell>
        <mxCell id="vx7e3LkDdVtEjiFvMovs-33" value="$$\mathbf{u}$$" style="rounded=0;whiteSpace=wrap;html=1;fillColor=#9AC7BF;strokeColor=#82b366;" parent="1" vertex="1">
          <mxGeometry x="960" y="550" width="40" height="40" as="geometry" />
        </mxCell>
        <mxCell id="vx7e3LkDdVtEjiFvMovs-34" value="Next utterance" style="text;html=1;strokeColor=none;fillColor=none;align=left;verticalAlign=bottom;whiteSpace=wrap;rounded=0;" parent="1" vertex="1">
          <mxGeometry x="960" y="510" width="60" height="40" as="geometry" />
        </mxCell>
        <mxCell id="vx7e3LkDdVtEjiFvMovs-4" value="" style="rounded=0;whiteSpace=wrap;html=1;fillColor=none;" parent="1" vertex="1">
          <mxGeometry x="240" y="540" width="200" height="60" as="geometry" />
        </mxCell>
        <mxCell id="vx7e3LkDdVtEjiFvMovs-5" value="$$S_1$$" style="rounded=0;whiteSpace=wrap;html=1;strokeColor=#7A7A7A;" parent="1" vertex="1">
          <mxGeometry x="250" y="550" width="40" height="40" as="geometry" />
        </mxCell>
        <mxCell id="vx7e3LkDdVtEjiFvMovs-6" value="$$S_2$$" style="rounded=0;whiteSpace=wrap;html=1;strokeColor=#7A7A7A;" parent="1" vertex="1">
          <mxGeometry x="300" y="550" width="40" height="40" as="geometry" />
        </mxCell>
        <mxCell id="vx7e3LkDdVtEjiFvMovs-7" value="$$S_{T-1}$$" style="rounded=0;whiteSpace=wrap;html=1;strokeColor=#7A7A7A;" parent="1" vertex="1">
          <mxGeometry x="390" y="550" width="40" height="40" as="geometry" />
        </mxCell>
        <mxCell id="vx7e3LkDdVtEjiFvMovs-8" value="$$\cdots$$" style="text;html=1;strokeColor=none;fillColor=none;align=center;verticalAlign=middle;whiteSpace=wrap;rounded=0;" parent="1" vertex="1">
          <mxGeometry x="340" y="550" width="50" height="40" as="geometry" />
        </mxCell>
        <mxCell id="m6a8vdt9xj0aYVUtu1R2-30" value="$$S_T$$" style="rounded=0;whiteSpace=wrap;html=1;strokeColor=#7A7A7A;" parent="1" vertex="1">
          <mxGeometry x="630" y="400" width="40" height="40" as="geometry" />
        </mxCell>
        <mxCell id="m6a8vdt9xj0aYVUtu1R2-31" value="" style="rounded=0;whiteSpace=wrap;html=1;fillColor=#e1d5e7;strokeColor=#9673a6;" parent="1" vertex="1">
          <mxGeometry x="570" y="400" width="10" height="40" as="geometry" />
        </mxCell>
        <mxCell id="m6a8vdt9xj0aYVUtu1R2-32" value="$$S_{T-1}$$" style="rounded=0;whiteSpace=wrap;html=1;container=0;strokeColor=#7A7A7A;" parent="1" vertex="1">
          <mxGeometry x="530" y="400" width="40" height="40" as="geometry" />
        </mxCell>
        <mxCell id="m6a8vdt9xj0aYVUtu1R2-35" value="$$P_{\mathrm{self}}$$" style="rounded=0;whiteSpace=wrap;html=1;fillColor=#fff2cc;strokeColor=#d6b656;" parent="1" vertex="1">
          <mxGeometry x="580" y="400" width="40" height="40" as="geometry" />
        </mxCell>
        <mxCell id="m6a8vdt9xj0aYVUtu1R2-36" value="" style="rounded=0;whiteSpace=wrap;html=1;fillColor=#e1d5e7;strokeColor=#9673a6;" parent="1" vertex="1">
          <mxGeometry x="620" y="400" width="10" height="40" as="geometry" />
        </mxCell>
        <mxCell id="pnuVMr6KB6IajpcJZvUw-1" value="Base architecture" style="text;html=1;strokeColor=none;fillColor=none;align=left;verticalAlign=middle;whiteSpace=wrap;rounded=0;" parent="1" vertex="1">
          <mxGeometry x="220" y="340" width="140" height="20" as="geometry" />
        </mxCell>
        <mxCell id="pnuVMr6KB6IajpcJZvUw-2" value="PEX architecture" style="text;html=1;strokeColor=none;fillColor=none;align=left;verticalAlign=middle;whiteSpace=wrap;rounded=0;" parent="1" vertex="1">
          <mxGeometry x="220" y="490" width="155" height="20" as="geometry" />
        </mxCell>
        <mxCell id="hu7ig7_r3UmZXQbXfg5h-1" value="" style="rounded=0;whiteSpace=wrap;html=1;fillColor=#e1d5e7;strokeColor=#9673a6;" parent="1" vertex="1">
          <mxGeometry x="510" y="640" width="10" height="10" as="geometry" />
        </mxCell>
        <mxCell id="hu7ig7_r3UmZXQbXfg5h-2" value="Session separator (optional)" style="text;html=1;strokeColor=none;fillColor=none;align=left;verticalAlign=middle;whiteSpace=wrap;rounded=0;fontSize=10;" parent="1" vertex="1">
          <mxGeometry x="520" y="640" width="160" height="10" as="geometry" />
        </mxCell>
        <mxCell id="hu7ig7_r3UmZXQbXfg5h-3" value="" style="rounded=0;whiteSpace=wrap;html=1;strokeColor=#7A7A7A;" parent="1" vertex="1">
          <mxGeometry x="230" y="640" width="10" height="10" as="geometry" />
        </mxCell>
        <mxCell id="hu7ig7_r3UmZXQbXfg5h-4" value="Dialogue session" style="text;html=1;strokeColor=none;fillColor=none;align=left;verticalAlign=middle;whiteSpace=wrap;rounded=0;fontSize=10;" parent="1" vertex="1">
          <mxGeometry x="240" y="640" width="120" height="10" as="geometry" />
        </mxCell>
        <mxCell id="hu7ig7_r3UmZXQbXfg5h-5" value="" style="rounded=0;whiteSpace=wrap;html=1;strokeColor=#d6b656;fillColor=#fff2cc;" parent="1" vertex="1">
          <mxGeometry x="350" y="640" width="10" height="10" as="geometry" />
        </mxCell>
        <mxCell id="hu7ig7_r3UmZXQbXfg5h-6" value="Personas" style="text;html=1;strokeColor=none;fillColor=none;align=left;verticalAlign=middle;whiteSpace=wrap;rounded=0;fontSize=10;" parent="1" vertex="1">
          <mxGeometry x="360" y="640" width="70" height="10" as="geometry" />
        </mxCell>
        <mxCell id="hu7ig7_r3UmZXQbXfg5h-7" value="" style="rounded=0;whiteSpace=wrap;html=1;strokeColor=#9AC7BF;fillColor=#9AC7BF;" parent="1" vertex="1">
          <mxGeometry x="430" y="640" width="10" height="10" as="geometry" />
        </mxCell>
        <mxCell id="hu7ig7_r3UmZXQbXfg5h-8" value="Utterance" style="text;html=1;strokeColor=none;fillColor=none;align=left;verticalAlign=middle;whiteSpace=wrap;rounded=0;fontSize=10;" parent="1" vertex="1">
          <mxGeometry x="440" y="640" width="70" height="10" as="geometry" />
        </mxCell>
        <mxCell id="mWBSl4mltIxmxVaF2mLq-1" value="Input for Persona extractor" style="text;html=1;strokeColor=none;fillColor=none;align=left;verticalAlign=middle;whiteSpace=wrap;rounded=0;" parent="1" vertex="1">
          <mxGeometry x="240" y="520" width="200" height="20" as="geometry" />
        </mxCell>
        <mxCell id="FLWQBeqXg4T2gRLPnM4A-1" value="" style="rounded=0;whiteSpace=wrap;html=1;strokeColor=none;fillColor=none;" parent="1" vertex="1">
          <mxGeometry x="220" y="630" width="800" height="30" as="geometry" />
        </mxCell>
      </root>
    </mxGraphModel>
  </diagram>
  <diagram id="gXWElXS4Pyoal3cVrTZq" name="extractor">
    <mxGraphModel dx="911" dy="649" grid="1" gridSize="10" guides="1" tooltips="1" connect="1" arrows="1" fold="1" page="1" pageScale="1" pageWidth="1169" pageHeight="827" math="1" shadow="0">
      <root>
        <mxCell id="0" />
        <mxCell id="1" parent="0" />
        <mxCell id="qdAfj2lwsraKz-mzeGaX-1" value="" style="rounded=0;whiteSpace=wrap;html=1;strokeColor=none;fillColor=none;" parent="1" vertex="1">
          <mxGeometry x="80" y="400" width="1040" height="30" as="geometry" />
        </mxCell>
        <mxCell id="4J7DMBXWv4r87TxT2Qau-1" value="" style="rounded=0;whiteSpace=wrap;html=1;" parent="1" vertex="1">
          <mxGeometry x="100" y="145" width="1000" height="255" as="geometry" />
        </mxCell>
        <mxCell id="4J7DMBXWv4r87TxT2Qau-2" value="" style="rounded=0;whiteSpace=wrap;html=1;" parent="1" vertex="1">
          <mxGeometry x="1029" y="180" width="61" height="200" as="geometry" />
        </mxCell>
        <mxCell id="7ngOsPB-on-MXQSc0nCR-101" value="" style="rounded=0;whiteSpace=wrap;html=1;fillColor=#dae8fc;strokeColor=#6c8ebf;" parent="1" vertex="1">
          <mxGeometry x="467.5" y="180" width="552.5" height="200" as="geometry" />
        </mxCell>
        <mxCell id="7ngOsPB-on-MXQSc0nCR-61" value="" style="rounded=0;whiteSpace=wrap;html=1;fillColor=default;" parent="1" vertex="1">
          <mxGeometry x="560" y="200" width="120" height="50" as="geometry" />
        </mxCell>
        <mxCell id="pY2je3RrM1G6gHgzTbkT-6" value="" style="rounded=0;whiteSpace=wrap;html=1;fillColor=default;" parent="1" vertex="1">
          <mxGeometry x="565" y="205" width="120" height="50" as="geometry" />
        </mxCell>
        <mxCell id="7ngOsPB-on-MXQSc0nCR-56" value="" style="rounded=0;whiteSpace=wrap;html=1;fillColor=default;" parent="1" vertex="1">
          <mxGeometry x="560" y="295" width="120" height="50" as="geometry" />
        </mxCell>
        <mxCell id="pY2je3RrM1G6gHgzTbkT-3" value="" style="rounded=0;whiteSpace=wrap;html=1;fillColor=default;" parent="1" vertex="1">
          <mxGeometry x="565" y="300" width="120" height="50" as="geometry" />
        </mxCell>
        <mxCell id="7ngOsPB-on-MXQSc0nCR-2" value="" style="rounded=0;whiteSpace=wrap;html=1;" parent="1" vertex="1">
          <mxGeometry x="110" y="250" width="340" height="60" as="geometry" />
        </mxCell>
        <mxCell id="7ngOsPB-on-MXQSc0nCR-10" value="" style="endArrow=classic;html=1;rounded=0;entryX=0;entryY=0.5;entryDx=0;entryDy=0;exitX=1;exitY=0.5;exitDx=0;exitDy=0;entryPerimeter=0;" parent="1" source="7ngOsPB-on-MXQSc0nCR-2" target="7ngOsPB-on-MXQSc0nCR-50" edge="1">
          <mxGeometry width="50" height="50" relative="1" as="geometry">
            <mxPoint x="410" y="550" as="sourcePoint" />
            <mxPoint x="450" y="550" as="targetPoint" />
          </mxGeometry>
        </mxCell>
        <mxCell id="7ngOsPB-on-MXQSc0nCR-26" value="Persona generator" style="whiteSpace=wrap;html=1;aspect=fixed;fillColor=#A9C4EB;strokeColor=#6c8ebf;" parent="1" vertex="1">
          <mxGeometry x="740" y="240" width="80" height="80" as="geometry" />
        </mxCell>
        <mxCell id="7ngOsPB-on-MXQSc0nCR-34" value="$$\mathbf{u}^B_{N-2}$$" style="rounded=0;whiteSpace=wrap;html=1;fillColor=#9AC7BF;strokeColor=#82b366;" parent="1" vertex="1">
          <mxGeometry x="300" y="265" width="40" height="30" as="geometry" />
        </mxCell>
        <mxCell id="7ngOsPB-on-MXQSc0nCR-36" value="$$\mathbf{u}^A_{3}$$" style="rounded=0;whiteSpace=wrap;html=1;fillColor=#9AC7BF;strokeColor=#82b366;" parent="1" vertex="1">
          <mxGeometry x="220" y="265" width="40" height="30" as="geometry" />
        </mxCell>
        <mxCell id="7ngOsPB-on-MXQSc0nCR-37" value="$$\mathbf{u}^B_{2}$$" style="rounded=0;whiteSpace=wrap;html=1;fillColor=#9AC7BF;strokeColor=#82b366;" parent="1" vertex="1">
          <mxGeometry x="170" y="265" width="40" height="30" as="geometry" />
        </mxCell>
        <mxCell id="7ngOsPB-on-MXQSc0nCR-38" value="$$\mathbf{u}^A_{1}$$" style="rounded=0;whiteSpace=wrap;html=1;fillColor=#9AC7BF;strokeColor=#82b366;" parent="1" vertex="1">
          <mxGeometry x="120" y="265" width="40" height="30" as="geometry" />
        </mxCell>
        <mxCell id="7ngOsPB-on-MXQSc0nCR-39" value="$$\mathbf{u}^B_N$$" style="rounded=0;whiteSpace=wrap;html=1;fillColor=#9AC7BF;strokeColor=#82b366;" parent="1" vertex="1">
          <mxGeometry x="400" y="265" width="40" height="30" as="geometry" />
        </mxCell>
        <mxCell id="7ngOsPB-on-MXQSc0nCR-40" value="$$\mathbf{u}^A_{N-1}$$" style="rounded=0;whiteSpace=wrap;html=1;fillColor=#9AC7BF;strokeColor=#82b366;" parent="1" vertex="1">
          <mxGeometry x="350" y="265" width="40" height="30" as="geometry" />
        </mxCell>
        <mxCell id="7ngOsPB-on-MXQSc0nCR-47" value="$$\cdots$$" style="text;html=1;strokeColor=none;fillColor=none;align=center;verticalAlign=middle;whiteSpace=wrap;rounded=0;" parent="1" vertex="1">
          <mxGeometry x="260" y="265" width="40" height="30" as="geometry" />
        </mxCell>
        <mxCell id="7ngOsPB-on-MXQSc0nCR-50" value="" style="verticalLabelPosition=bottom;verticalAlign=top;html=1;shape=mxgraph.flowchart.sort;" parent="1" vertex="1">
          <mxGeometry x="490" y="265" width="30" height="30" as="geometry" />
        </mxCell>
        <mxCell id="7ngOsPB-on-MXQSc0nCR-58" value="" style="rounded=0;whiteSpace=wrap;html=1;fillColor=default;" parent="1" vertex="1">
          <mxGeometry x="570" y="305" width="120" height="50" as="geometry" />
        </mxCell>
        <mxCell id="7ngOsPB-on-MXQSc0nCR-59" value="$$\mathbf{u}^B_i$$" style="rounded=0;whiteSpace=wrap;html=1;fillColor=#9AC7BF;strokeColor=#82b366;" parent="1" vertex="1">
          <mxGeometry x="640" y="315" width="40" height="30" as="geometry" />
        </mxCell>
        <mxCell id="7ngOsPB-on-MXQSc0nCR-60" value="$$\mathbf{u}^A_{i-1}$$" style="rounded=0;whiteSpace=wrap;html=1;fillColor=#9AC7BF;strokeColor=#82b366;" parent="1" vertex="1">
          <mxGeometry x="590" y="315" width="40" height="30" as="geometry" />
        </mxCell>
        <mxCell id="7ngOsPB-on-MXQSc0nCR-63" value="" style="rounded=0;whiteSpace=wrap;html=1;fillColor=default;" parent="1" vertex="1">
          <mxGeometry x="570" y="210" width="120" height="50" as="geometry" />
        </mxCell>
        <mxCell id="7ngOsPB-on-MXQSc0nCR-51" value="$$\mathbf{u}^A_i$$" style="rounded=0;whiteSpace=wrap;html=1;fillColor=#9AC7BF;strokeColor=#82b366;" parent="1" vertex="1">
          <mxGeometry x="640" y="220" width="40" height="30" as="geometry" />
        </mxCell>
        <mxCell id="7ngOsPB-on-MXQSc0nCR-52" value="$$\mathbf{u}^B_{i-1}$$" style="rounded=0;whiteSpace=wrap;html=1;fillColor=#9AC7BF;strokeColor=#82b366;" parent="1" vertex="1">
          <mxGeometry x="590" y="220" width="40" height="30" as="geometry" />
        </mxCell>
        <mxCell id="7ngOsPB-on-MXQSc0nCR-67" value="$$i \in \{2, 4, 6, \cdots, N\}$$" style="text;html=1;strokeColor=none;fillColor=none;align=left;verticalAlign=middle;whiteSpace=wrap;rounded=0;fontSize=8;" parent="1" vertex="1">
          <mxGeometry x="570" y="355" width="110" height="20" as="geometry" />
        </mxCell>
        <mxCell id="7ngOsPB-on-MXQSc0nCR-68" value="$$i \in \{3, 5, \cdots, N-1\}$$" style="text;html=1;strokeColor=none;fillColor=none;align=left;verticalAlign=middle;whiteSpace=wrap;rounded=0;fontSize=8;" parent="1" vertex="1">
          <mxGeometry x="570" y="260" width="110" height="20" as="geometry" />
        </mxCell>
        <mxCell id="7ngOsPB-on-MXQSc0nCR-70" value="" style="edgeStyle=elbowEdgeStyle;elbow=horizontal;endArrow=classic;html=1;curved=0;rounded=0;endSize=8;startSize=8;entryX=0;entryY=0.5;entryDx=0;entryDy=0;exitX=1;exitY=0.5;exitDx=0;exitDy=0;" parent="1" source="7ngOsPB-on-MXQSc0nCR-58" target="7ngOsPB-on-MXQSc0nCR-26" edge="1">
          <mxGeometry width="50" height="50" relative="1" as="geometry">
            <mxPoint x="700" y="330" as="sourcePoint" />
            <mxPoint x="720" y="280" as="targetPoint" />
            <Array as="points" />
          </mxGeometry>
        </mxCell>
        <mxCell id="7ngOsPB-on-MXQSc0nCR-71" value="" style="edgeStyle=elbowEdgeStyle;elbow=horizontal;endArrow=classic;html=1;curved=0;rounded=0;endSize=8;startSize=8;entryX=0;entryY=0.5;entryDx=0;entryDy=0;exitX=1;exitY=0.5;exitDx=0;exitDy=0;" parent="1" source="7ngOsPB-on-MXQSc0nCR-63" target="7ngOsPB-on-MXQSc0nCR-26" edge="1">
          <mxGeometry width="50" height="50" relative="1" as="geometry">
            <mxPoint x="690" y="340" as="sourcePoint" />
            <mxPoint x="750" y="290" as="targetPoint" />
            <Array as="points" />
          </mxGeometry>
        </mxCell>
        <mxCell id="7ngOsPB-on-MXQSc0nCR-72" value="$$P_B$$" style="rounded=0;whiteSpace=wrap;html=1;fillColor=#fff2cc;strokeColor=#d6b656;" parent="1" vertex="1">
          <mxGeometry x="1040" y="310" width="40" height="40" as="geometry" />
        </mxCell>
        <mxCell id="7ngOsPB-on-MXQSc0nCR-73" value="" style="edgeStyle=elbowEdgeStyle;elbow=horizontal;endArrow=classic;html=1;curved=0;rounded=0;endSize=8;startSize=8;entryX=0;entryY=0.75;entryDx=0;entryDy=0;exitX=1;exitY=0.5;exitDx=0;exitDy=0;exitPerimeter=0;" parent="1" source="7ngOsPB-on-MXQSc0nCR-50" target="7ngOsPB-on-MXQSc0nCR-56" edge="1">
          <mxGeometry width="50" height="50" relative="1" as="geometry">
            <mxPoint x="530" y="275" as="sourcePoint" />
            <mxPoint x="590" y="320" as="targetPoint" />
          </mxGeometry>
        </mxCell>
        <mxCell id="7ngOsPB-on-MXQSc0nCR-74" value="" style="edgeStyle=elbowEdgeStyle;elbow=horizontal;endArrow=classic;html=1;curved=0;rounded=0;endSize=8;startSize=8;entryX=0;entryY=0.75;entryDx=0;entryDy=0;exitX=1;exitY=0.5;exitDx=0;exitDy=0;exitPerimeter=0;" parent="1" source="7ngOsPB-on-MXQSc0nCR-50" target="7ngOsPB-on-MXQSc0nCR-61" edge="1">
          <mxGeometry width="50" height="50" relative="1" as="geometry">
            <mxPoint x="520" y="290" as="sourcePoint" />
            <mxPoint x="550" y="343" as="targetPoint" />
          </mxGeometry>
        </mxCell>
        <mxCell id="7ngOsPB-on-MXQSc0nCR-76" value="$$P_A$$" style="rounded=0;whiteSpace=wrap;html=1;fillColor=#fff2cc;strokeColor=#d6b656;" parent="1" vertex="1">
          <mxGeometry x="1040" y="210" width="40" height="40" as="geometry" />
        </mxCell>
        <mxCell id="7ngOsPB-on-MXQSc0nCR-80" value="" style="rounded=0;whiteSpace=wrap;html=1;fillColor=#fff2cc;strokeColor=#d6b656;" parent="1" vertex="1">
          <mxGeometry x="860" y="310" width="90" height="30" as="geometry" />
        </mxCell>
        <mxCell id="7ngOsPB-on-MXQSc0nCR-81" value="" style="rounded=0;whiteSpace=wrap;html=1;fillColor=#fff2cc;strokeColor=#d6b656;" parent="1" vertex="1">
          <mxGeometry x="865" y="315" width="90" height="30" as="geometry" />
        </mxCell>
        <mxCell id="7ngOsPB-on-MXQSc0nCR-77" value="$$p^B_i\text{ / }\texttt{nofact}$$" style="rounded=0;whiteSpace=wrap;html=1;fillColor=#fff2cc;strokeColor=#d6b656;" parent="1" vertex="1">
          <mxGeometry x="870" y="320" width="90" height="30" as="geometry" />
        </mxCell>
        <mxCell id="7ngOsPB-on-MXQSc0nCR-83" value="" style="rounded=0;whiteSpace=wrap;html=1;fillColor=#fff2cc;strokeColor=#d6b656;" parent="1" vertex="1">
          <mxGeometry x="860" y="210" width="90" height="30" as="geometry" />
        </mxCell>
        <mxCell id="7ngOsPB-on-MXQSc0nCR-84" value="" style="rounded=0;whiteSpace=wrap;html=1;fillColor=#fff2cc;strokeColor=#d6b656;" parent="1" vertex="1">
          <mxGeometry x="865" y="215" width="90" height="30" as="geometry" />
        </mxCell>
        <mxCell id="7ngOsPB-on-MXQSc0nCR-85" value="$$p^A_i\text{ / }\texttt{nofact}$$" style="rounded=0;whiteSpace=wrap;html=1;fillColor=#fff2cc;strokeColor=#d6b656;" parent="1" vertex="1">
          <mxGeometry x="870" y="220" width="90" height="30" as="geometry" />
        </mxCell>
        <mxCell id="7ngOsPB-on-MXQSc0nCR-88" value="" style="edgeStyle=elbowEdgeStyle;elbow=horizontal;endArrow=classic;html=1;curved=0;rounded=0;endSize=8;startSize=8;entryX=0;entryY=0.75;entryDx=0;entryDy=0;" parent="1" target="7ngOsPB-on-MXQSc0nCR-80" edge="1">
          <mxGeometry width="50" height="50" relative="1" as="geometry">
            <mxPoint x="840" y="280" as="sourcePoint" />
            <mxPoint x="900" y="345" as="targetPoint" />
            <Array as="points">
              <mxPoint x="840" y="310" />
            </Array>
          </mxGeometry>
        </mxCell>
        <mxCell id="7ngOsPB-on-MXQSc0nCR-89" value="" style="edgeStyle=elbowEdgeStyle;elbow=horizontal;endArrow=classic;html=1;curved=0;rounded=0;endSize=8;startSize=8;entryX=0;entryY=0.75;entryDx=0;entryDy=0;exitX=1;exitY=0.5;exitDx=0;exitDy=0;" parent="1" source="7ngOsPB-on-MXQSc0nCR-26" target="7ngOsPB-on-MXQSc0nCR-83" edge="1">
          <mxGeometry width="50" height="50" relative="1" as="geometry">
            <mxPoint x="850" y="292" as="sourcePoint" />
            <mxPoint x="900" y="250" as="targetPoint" />
            <Array as="points">
              <mxPoint x="840" y="260" />
            </Array>
          </mxGeometry>
        </mxCell>
        <mxCell id="7ngOsPB-on-MXQSc0nCR-93" value="" style="shape=collate;whiteSpace=wrap;html=1;" parent="1" vertex="1">
          <mxGeometry x="980" y="320" width="20" height="20" as="geometry" />
        </mxCell>
        <mxCell id="7ngOsPB-on-MXQSc0nCR-97" value="" style="endArrow=classic;html=1;rounded=0;entryX=0;entryY=0.5;entryDx=0;entryDy=0;" parent="1" target="7ngOsPB-on-MXQSc0nCR-72" edge="1">
          <mxGeometry width="50" height="50" relative="1" as="geometry">
            <mxPoint x="960" y="330" as="sourcePoint" />
            <mxPoint x="1030" y="330" as="targetPoint" />
          </mxGeometry>
        </mxCell>
        <mxCell id="7ngOsPB-on-MXQSc0nCR-99" value="" style="shape=collate;whiteSpace=wrap;html=1;" parent="1" vertex="1">
          <mxGeometry x="980" y="220" width="20" height="20" as="geometry" />
        </mxCell>
        <mxCell id="7ngOsPB-on-MXQSc0nCR-100" value="" style="endArrow=classic;html=1;rounded=0;entryX=0;entryY=0.5;entryDx=0;entryDy=0;" parent="1" target="7ngOsPB-on-MXQSc0nCR-76" edge="1">
          <mxGeometry width="50" height="50" relative="1" as="geometry">
            <mxPoint x="960" y="229.76" as="sourcePoint" />
            <mxPoint x="1030" y="229.76" as="targetPoint" />
          </mxGeometry>
        </mxCell>
        <mxCell id="7ngOsPB-on-MXQSc0nCR-102" value="Dialogue session" style="text;html=1;strokeColor=none;fillColor=none;align=left;verticalAlign=middle;whiteSpace=wrap;rounded=0;" parent="1" vertex="1">
          <mxGeometry x="110" y="230" width="150" height="20" as="geometry" />
        </mxCell>
        <mxCell id="7ngOsPB-on-MXQSc0nCR-103" value="Persona Extractor" style="text;html=1;strokeColor=none;fillColor=none;align=left;verticalAlign=middle;whiteSpace=wrap;rounded=0;" parent="1" vertex="1">
          <mxGeometry x="465" y="160" width="150" height="20" as="geometry" />
        </mxCell>
        <mxCell id="7ngOsPB-on-MXQSc0nCR-104" value="Extracted personas" style="text;html=1;strokeColor=none;fillColor=none;align=center;verticalAlign=bottom;whiteSpace=wrap;rounded=0;" parent="1" vertex="1">
          <mxGeometry x="1030" y="140" width="60" height="40" as="geometry" />
        </mxCell>
        <mxCell id="UCorrva-p0Kcag2NOjND-1" value="Split" style="text;html=1;strokeColor=none;fillColor=none;align=center;verticalAlign=middle;whiteSpace=wrap;rounded=0;fontSize=10;" parent="1" vertex="1">
          <mxGeometry x="490" y="245" width="30" height="20" as="geometry" />
        </mxCell>
        <mxCell id="UCorrva-p0Kcag2NOjND-2" value="Filter and collate" style="text;html=1;strokeColor=none;fillColor=none;align=center;verticalAlign=middle;whiteSpace=wrap;rounded=0;fontSize=10;" parent="1" vertex="1">
          <mxGeometry x="977.5" y="190" width="25" height="20" as="geometry" />
        </mxCell>
        <mxCell id="UCorrva-p0Kcag2NOjND-4" value="Dialogue segments" style="text;html=1;strokeColor=none;fillColor=none;align=left;verticalAlign=middle;whiteSpace=wrap;rounded=0;fontSize=10;" parent="1" vertex="1">
          <mxGeometry x="560" y="180" width="110" height="20" as="geometry" />
        </mxCell>
        <mxCell id="UCorrva-p0Kcag2NOjND-5" value="Persona sentences" style="text;html=1;strokeColor=none;fillColor=none;align=left;verticalAlign=middle;whiteSpace=wrap;rounded=0;fontSize=10;" parent="1" vertex="1">
          <mxGeometry x="860" y="180" width="110" height="20" as="geometry" />
        </mxCell>
        <mxCell id="pY2je3RrM1G6gHgzTbkT-1" value="" style="rounded=0;whiteSpace=wrap;html=1;fillColor=#e1d5e7;strokeColor=#9673a6;" parent="1" vertex="1">
          <mxGeometry x="580" y="315" width="10" height="30" as="geometry" />
        </mxCell>
        <mxCell id="pY2je3RrM1G6gHgzTbkT-2" value="" style="rounded=0;whiteSpace=wrap;html=1;fillColor=#e1d5e7;strokeColor=#9673a6;" parent="1" vertex="1">
          <mxGeometry x="630" y="315" width="10" height="30" as="geometry" />
        </mxCell>
        <mxCell id="pY2je3RrM1G6gHgzTbkT-4" value="" style="rounded=0;whiteSpace=wrap;html=1;fillColor=#e1d5e7;strokeColor=#9673a6;" parent="1" vertex="1">
          <mxGeometry x="580" y="220" width="10" height="30" as="geometry" />
        </mxCell>
        <mxCell id="pY2je3RrM1G6gHgzTbkT-5" value="" style="rounded=0;whiteSpace=wrap;html=1;fillColor=#e1d5e7;strokeColor=#9673a6;" parent="1" vertex="1">
          <mxGeometry x="630" y="220" width="10" height="30" as="geometry" />
        </mxCell>
        <mxCell id="pY2je3RrM1G6gHgzTbkT-7" value="$$D^A$$" style="text;html=1;strokeColor=none;fillColor=none;align=right;verticalAlign=middle;whiteSpace=wrap;rounded=0;fontSize=8;" parent="1" vertex="1">
          <mxGeometry x="530" y="215" width="30" height="20" as="geometry" />
        </mxCell>
        <mxCell id="pY2je3RrM1G6gHgzTbkT-8" value="$$D^B$$" style="text;html=1;strokeColor=none;fillColor=none;align=right;verticalAlign=middle;whiteSpace=wrap;rounded=0;fontSize=8;" parent="1" vertex="1">
          <mxGeometry x="530" y="310" width="30" height="20" as="geometry" />
        </mxCell>
        <mxCell id="-WDow0IKZrGD_Sf0E_be-1" value="" style="rounded=0;whiteSpace=wrap;html=1;fillColor=#e1d5e7;strokeColor=#9673a6;" parent="1" vertex="1">
          <mxGeometry x="270" y="408" width="10" height="10" as="geometry" />
        </mxCell>
        <mxCell id="-WDow0IKZrGD_Sf0E_be-2" value="Speaker prefix (optional)" style="text;html=1;strokeColor=none;fillColor=none;align=left;verticalAlign=middle;whiteSpace=wrap;rounded=0;fontSize=10;" parent="1" vertex="1">
          <mxGeometry x="280" y="408" width="120" height="10" as="geometry" />
        </mxCell>
        <mxCell id="-WDow0IKZrGD_Sf0E_be-5" value="" style="rounded=0;whiteSpace=wrap;html=1;strokeColor=#d6b656;fillColor=#fff2cc;" parent="1" vertex="1">
          <mxGeometry x="190" y="408" width="10" height="10" as="geometry" />
        </mxCell>
        <mxCell id="-WDow0IKZrGD_Sf0E_be-6" value="Personas" style="text;html=1;strokeColor=none;fillColor=none;align=left;verticalAlign=middle;whiteSpace=wrap;rounded=0;fontSize=10;" parent="1" vertex="1">
          <mxGeometry x="200" y="408" width="70" height="10" as="geometry" />
        </mxCell>
        <mxCell id="-WDow0IKZrGD_Sf0E_be-7" value="" style="rounded=0;whiteSpace=wrap;html=1;strokeColor=#9AC7BF;fillColor=#9AC7BF;" parent="1" vertex="1">
          <mxGeometry x="110" y="408" width="10" height="10" as="geometry" />
        </mxCell>
        <mxCell id="-WDow0IKZrGD_Sf0E_be-8" value="Utterance" style="text;html=1;strokeColor=none;fillColor=none;align=left;verticalAlign=middle;whiteSpace=wrap;rounded=0;fontSize=10;" parent="1" vertex="1">
          <mxGeometry x="120" y="408" width="70" height="10" as="geometry" />
        </mxCell>
        <mxCell id="2wBxWL8MOhep65_9rDFl-1" value="Filter and collate" style="text;html=1;strokeColor=none;fillColor=none;align=center;verticalAlign=middle;whiteSpace=wrap;rounded=0;fontSize=10;" parent="1" vertex="1">
          <mxGeometry x="980" y="290" width="25" height="20" as="geometry" />
        </mxCell>
        <mxCell id="NLU0RWMuOFAPrETaelL--1" value="" style="rounded=0;whiteSpace=wrap;html=1;strokeColor=none;fillColor=none;" parent="1" vertex="1">
          <mxGeometry x="100" y="400" width="1000" height="30" as="geometry" />
        </mxCell>
      </root>
    </mxGraphModel>
  </diagram>
  <diagram id="tcFXz7CAmsZwcsPTcjYG" name="selfchat">
    <mxGraphModel dx="911" dy="649" grid="1" gridSize="10" guides="1" tooltips="1" connect="1" arrows="1" fold="1" page="1" pageScale="1" pageWidth="1169" pageHeight="827" math="1" shadow="0">
      <root>
        <mxCell id="0" />
        <mxCell id="1" parent="0" />
        <mxCell id="1Uju6nHdMVuwQTitGDGK-19" value="" style="rounded=0;whiteSpace=wrap;html=1;" parent="1" vertex="1">
          <mxGeometry x="110" y="60" width="650" height="240" as="geometry" />
        </mxCell>
        <mxCell id="1Uju6nHdMVuwQTitGDGK-5" value="" style="rounded=0;whiteSpace=wrap;html=1;fillColor=#d5e8d4;strokeColor=#82b366;" parent="1" vertex="1">
          <mxGeometry x="130" y="210" width="310" height="60" as="geometry" />
        </mxCell>
        <mxCell id="1Uju6nHdMVuwQTitGDGK-6" value="$$\mathbf{u}_{&amp;lt;t}$$" style="rounded=0;whiteSpace=wrap;html=1;fillColor=#9AC7BF;strokeColor=#82b366;" parent="1" vertex="1">
          <mxGeometry x="390" y="220" width="40" height="40" as="geometry" />
        </mxCell>
        <mxCell id="1Uju6nHdMVuwQTitGDGK-7" value="$$P_{B}$$" style="rounded=0;whiteSpace=wrap;html=1;fillColor=#fff2cc;strokeColor=#d6b656;" parent="1" vertex="1">
          <mxGeometry x="300" y="220" width="40" height="40" as="geometry" />
        </mxCell>
        <mxCell id="1Uju6nHdMVuwQTitGDGK-8" value="" style="rounded=0;whiteSpace=wrap;html=1;fillColor=#e1d5e7;strokeColor=#9673a6;" parent="1" vertex="1">
          <mxGeometry x="290" y="220" width="10" height="40" as="geometry" />
        </mxCell>
        <mxCell id="1Uju6nHdMVuwQTitGDGK-9" value="" style="rounded=0;whiteSpace=wrap;html=1;fillColor=#e1d5e7;strokeColor=#9673a6;" parent="1" vertex="1">
          <mxGeometry x="340" y="220" width="10" height="40" as="geometry" />
        </mxCell>
        <mxCell id="1Uju6nHdMVuwQTitGDGK-10" value="$$S_T$$" style="rounded=0;whiteSpace=wrap;html=1;container=0;strokeColor=#7A7A7A;" parent="1" vertex="1">
          <mxGeometry x="350" y="220" width="40" height="40" as="geometry" />
        </mxCell>
        <mxCell id="1Uju6nHdMVuwQTitGDGK-11" value="Agent B" style="text;html=1;strokeColor=none;fillColor=none;align=left;verticalAlign=middle;whiteSpace=wrap;rounded=0;" parent="1" vertex="1">
          <mxGeometry x="130" y="190" width="150" height="20" as="geometry" />
        </mxCell>
        <mxCell id="1Uju6nHdMVuwQTitGDGK-12" value="$$S_{T-1}$$" style="rounded=0;whiteSpace=wrap;html=1;container=0;strokeColor=#7A7A7A;" parent="1" vertex="1">
          <mxGeometry x="250" y="220" width="40" height="40" as="geometry" />
        </mxCell>
        <mxCell id="1Uju6nHdMVuwQTitGDGK-13" value="" style="rounded=0;whiteSpace=wrap;html=1;fillColor=#e1d5e7;strokeColor=#9673a6;" parent="1" vertex="1">
          <mxGeometry x="240" y="220" width="10" height="40" as="geometry" />
        </mxCell>
        <mxCell id="1Uju6nHdMVuwQTitGDGK-14" value="" style="rounded=0;whiteSpace=wrap;html=1;fillColor=#e1d5e7;strokeColor=#9673a6;" parent="1" vertex="1">
          <mxGeometry x="190" y="220" width="10" height="40" as="geometry" />
        </mxCell>
        <mxCell id="1Uju6nHdMVuwQTitGDGK-15" value="$$S_{1}$$" style="rounded=0;whiteSpace=wrap;html=1;container=0;strokeColor=#7A7A7A;" parent="1" vertex="1">
          <mxGeometry x="150" y="220" width="40" height="40" as="geometry" />
        </mxCell>
        <mxCell id="1Uju6nHdMVuwQTitGDGK-16" value="$$\cdots$$" style="text;html=1;strokeColor=none;fillColor=none;align=center;verticalAlign=middle;whiteSpace=wrap;rounded=0;" parent="1" vertex="1">
          <mxGeometry x="200" y="220" width="40" height="40" as="geometry" />
        </mxCell>
        <mxCell id="1Uju6nHdMVuwQTitGDGK-17" value="" style="rounded=0;whiteSpace=wrap;html=1;fillColor=#e1d5e7;strokeColor=#9673a6;" parent="1" vertex="1">
          <mxGeometry x="140" y="220" width="10" height="40" as="geometry" />
        </mxCell>
        <mxCell id="FEGp5fPI_6cozZC7OAte-15" value="" style="rounded=0;whiteSpace=wrap;html=1;fillColor=#d5e8d4;strokeColor=#82b366;" parent="1" vertex="1">
          <mxGeometry x="200" y="90" width="240" height="60" as="geometry" />
        </mxCell>
        <mxCell id="FEGp5fPI_6cozZC7OAte-1" value="Utterance generator" style="whiteSpace=wrap;html=1;aspect=fixed;fillColor=#dae8fc;strokeColor=#6c8ebf;" parent="1" vertex="1">
          <mxGeometry x="480" y="80" width="80" height="80" as="geometry" />
        </mxCell>
        <mxCell id="FEGp5fPI_6cozZC7OAte-2" value="" style="endArrow=classic;html=1;rounded=0;entryX=0;entryY=0.5;entryDx=0;entryDy=0;exitX=1;exitY=0.5;exitDx=0;exitDy=0;" parent="1" source="FEGp5fPI_6cozZC7OAte-15" target="FEGp5fPI_6cozZC7OAte-1" edge="1">
          <mxGeometry width="50" height="50" relative="1" as="geometry">
            <mxPoint x="450" y="-30" as="sourcePoint" />
            <mxPoint x="490" y="-30" as="targetPoint" />
          </mxGeometry>
        </mxCell>
        <mxCell id="FEGp5fPI_6cozZC7OAte-5" value="" style="endArrow=classic;html=1;rounded=0;exitX=1;exitY=0.5;exitDx=0;exitDy=0;entryX=0;entryY=0.5;entryDx=0;entryDy=0;" parent="1" target="llGhcwsiW4Y_0uOBVXcU-1" edge="1">
          <mxGeometry width="50" height="50" relative="1" as="geometry">
            <mxPoint x="560" y="120.5" as="sourcePoint" />
            <mxPoint x="600" y="120.5" as="targetPoint" />
          </mxGeometry>
        </mxCell>
        <mxCell id="FEGp5fPI_6cozZC7OAte-6" value="" style="edgeStyle=elbowEdgeStyle;elbow=vertical;endArrow=classic;html=1;curved=0;rounded=0;endSize=8;startSize=8;dashed=1;entryX=0.5;entryY=1;entryDx=0;entryDy=0;exitX=0.5;exitY=1;exitDx=0;exitDy=0;" parent="1" source="llGhcwsiW4Y_0uOBVXcU-1" target="FEGp5fPI_6cozZC7OAte-8" edge="1">
          <mxGeometry width="50" height="50" relative="1" as="geometry">
            <mxPoint x="620" y="150" as="sourcePoint" />
            <mxPoint x="450" y="137.5" as="targetPoint" />
            <Array as="points">
              <mxPoint x="520" y="180" />
            </Array>
          </mxGeometry>
        </mxCell>
        <mxCell id="FEGp5fPI_6cozZC7OAte-8" value="$$\mathbf{u}_{&amp;lt;t}$$" style="rounded=0;whiteSpace=wrap;html=1;fillColor=#9AC7BF;strokeColor=#82b366;" parent="1" vertex="1">
          <mxGeometry x="390" y="100" width="40" height="40" as="geometry" />
        </mxCell>
        <mxCell id="FEGp5fPI_6cozZC7OAte-9" value="$$P^{\mathrm{E}}_{A}$$" style="rounded=0;whiteSpace=wrap;html=1;fillColor=#fff2cc;strokeColor=#d6b656;" parent="1" vertex="1">
          <mxGeometry x="260" y="100" width="40" height="40" as="geometry" />
        </mxCell>
        <mxCell id="FEGp5fPI_6cozZC7OAte-10" value="$$P^{\mathrm{E}}_{B}$$" style="rounded=0;whiteSpace=wrap;html=1;fillColor=#fff2cc;strokeColor=#d6b656;" parent="1" vertex="1">
          <mxGeometry x="300" y="100" width="40" height="40" as="geometry" />
        </mxCell>
        <mxCell id="FEGp5fPI_6cozZC7OAte-11" value="$$P_{A}$$" style="rounded=0;whiteSpace=wrap;html=1;fillColor=#fff2cc;strokeColor=#d6b656;" parent="1" vertex="1">
          <mxGeometry x="220" y="100" width="40" height="40" as="geometry" />
        </mxCell>
        <mxCell id="FEGp5fPI_6cozZC7OAte-12" value="" style="rounded=0;whiteSpace=wrap;html=1;fillColor=#e1d5e7;strokeColor=#9673a6;" parent="1" vertex="1">
          <mxGeometry x="210" y="100" width="10" height="40" as="geometry" />
        </mxCell>
        <mxCell id="FEGp5fPI_6cozZC7OAte-13" value="" style="rounded=0;whiteSpace=wrap;html=1;fillColor=#e1d5e7;strokeColor=#9673a6;" parent="1" vertex="1">
          <mxGeometry x="340" y="100" width="10" height="40" as="geometry" />
        </mxCell>
        <mxCell id="FEGp5fPI_6cozZC7OAte-14" value="$$S_T$$" style="rounded=0;whiteSpace=wrap;html=1;container=0;strokeColor=#7A7A7A;" parent="1" vertex="1">
          <mxGeometry x="350" y="100" width="40" height="40" as="geometry" />
        </mxCell>
        <mxCell id="llGhcwsiW4Y_0uOBVXcU-1" value="$$\mathbf{u}^A_t$$" style="rounded=0;whiteSpace=wrap;html=1;fillColor=#9AC7BF;strokeColor=#82b366;" parent="1" vertex="1">
          <mxGeometry x="600" y="100" width="40" height="40" as="geometry" />
        </mxCell>
        <mxCell id="llGhcwsiW4Y_0uOBVXcU-3" value="Utterance generator" style="whiteSpace=wrap;html=1;aspect=fixed;fillColor=#dae8fc;strokeColor=#6c8ebf;" parent="1" vertex="1">
          <mxGeometry x="480" y="200" width="80" height="80" as="geometry" />
        </mxCell>
        <mxCell id="llGhcwsiW4Y_0uOBVXcU-4" value="" style="endArrow=classic;html=1;rounded=0;entryX=0;entryY=0.5;entryDx=0;entryDy=0;exitX=1;exitY=0.5;exitDx=0;exitDy=0;" parent="1" target="llGhcwsiW4Y_0uOBVXcU-3" edge="1">
          <mxGeometry width="50" height="50" relative="1" as="geometry">
            <mxPoint x="440" y="240" as="sourcePoint" />
            <mxPoint x="490" y="90" as="targetPoint" />
          </mxGeometry>
        </mxCell>
        <mxCell id="llGhcwsiW4Y_0uOBVXcU-5" value="" style="endArrow=classic;html=1;rounded=0;exitX=1;exitY=0.5;exitDx=0;exitDy=0;entryX=0;entryY=0.5;entryDx=0;entryDy=0;" parent="1" target="llGhcwsiW4Y_0uOBVXcU-14" edge="1">
          <mxGeometry width="50" height="50" relative="1" as="geometry">
            <mxPoint x="560" y="240.5" as="sourcePoint" />
            <mxPoint x="600" y="240.5" as="targetPoint" />
          </mxGeometry>
        </mxCell>
        <mxCell id="llGhcwsiW4Y_0uOBVXcU-14" value="$$\mathbf{u}^B_{t+1}$$" style="rounded=0;whiteSpace=wrap;html=1;fillColor=#9AC7BF;strokeColor=#82b366;" parent="1" vertex="1">
          <mxGeometry x="650" y="220" width="40" height="40" as="geometry" />
        </mxCell>
        <mxCell id="llGhcwsiW4Y_0uOBVXcU-15" value="$$\mathbf{u}^A_{t+2}$$" style="rounded=0;whiteSpace=wrap;html=1;fillColor=#9AC7BF;strokeColor=#82b366;" parent="1" vertex="1">
          <mxGeometry x="700" y="100" width="40" height="40" as="geometry" />
        </mxCell>
        <mxCell id="llGhcwsiW4Y_0uOBVXcU-16" value="" style="shape=partialRectangle;whiteSpace=wrap;html=1;bottom=0;right=0;fillColor=none;rotation=-180;dashed=1;" parent="1" vertex="1">
          <mxGeometry x="620" y="140" width="100" height="40" as="geometry" />
        </mxCell>
        <mxCell id="llGhcwsiW4Y_0uOBVXcU-17" value="" style="edgeStyle=elbowEdgeStyle;elbow=vertical;endArrow=classic;html=1;curved=0;rounded=0;endSize=8;startSize=8;dashed=1;entryX=0.5;entryY=0;entryDx=0;entryDy=0;exitX=0.5;exitY=0;exitDx=0;exitDy=0;" parent="1" source="llGhcwsiW4Y_0uOBVXcU-14" edge="1">
          <mxGeometry width="50" height="50" relative="1" as="geometry">
            <mxPoint x="630" y="110" as="sourcePoint" />
            <mxPoint x="410" y="220" as="targetPoint" />
            <Array as="points">
              <mxPoint x="540" y="180" />
            </Array>
          </mxGeometry>
        </mxCell>
        <mxCell id="abPt63L9RZxCrD9n2dwv-1" value="Agent A" style="text;html=1;strokeColor=none;fillColor=none;align=left;verticalAlign=middle;whiteSpace=wrap;rounded=0;" parent="1" vertex="1">
          <mxGeometry x="200" y="70" width="150" height="20" as="geometry" />
        </mxCell>
        <mxCell id="1Uju6nHdMVuwQTitGDGK-20" value="" style="endArrow=none;html=1;rounded=0;entryX=0;entryY=0;entryDx=0;entryDy=0;exitX=0.969;exitY=0.5;exitDx=0;exitDy=0;exitPerimeter=0;dashed=1;" parent="1" source="1Uju6nHdMVuwQTitGDGK-19" target="llGhcwsiW4Y_0uOBVXcU-16" edge="1">
          <mxGeometry width="50" height="50" relative="1" as="geometry">
            <mxPoint x="390" y="340" as="sourcePoint" />
            <mxPoint x="440" y="290" as="targetPoint" />
            <Array as="points">
              <mxPoint x="730" y="180" />
            </Array>
          </mxGeometry>
        </mxCell>
        <mxCell id="hC3qg4Dy1fM1G_aWGaBE-1" value="" style="rounded=0;whiteSpace=wrap;html=1;fillColor=#e1d5e7;strokeColor=#9673a6;" parent="1" vertex="1">
          <mxGeometry x="390" y="310" width="10" height="10" as="geometry" />
        </mxCell>
        <mxCell id="hC3qg4Dy1fM1G_aWGaBE-2" value="Session separator (optional)" style="text;html=1;strokeColor=none;fillColor=none;align=left;verticalAlign=middle;whiteSpace=wrap;rounded=0;fontSize=10;" parent="1" vertex="1">
          <mxGeometry x="400" y="310" width="150" height="10" as="geometry" />
        </mxCell>
        <mxCell id="hC3qg4Dy1fM1G_aWGaBE-3" value="" style="rounded=0;whiteSpace=wrap;html=1;strokeColor=#7A7A7A;" parent="1" vertex="1">
          <mxGeometry x="120" y="310" width="10" height="10" as="geometry" />
        </mxCell>
        <mxCell id="hC3qg4Dy1fM1G_aWGaBE-4" value="Dialogue session" style="text;html=1;strokeColor=none;fillColor=none;align=left;verticalAlign=middle;whiteSpace=wrap;rounded=0;fontSize=10;" parent="1" vertex="1">
          <mxGeometry x="130" y="310" width="120" height="10" as="geometry" />
        </mxCell>
        <mxCell id="hC3qg4Dy1fM1G_aWGaBE-5" value="" style="rounded=0;whiteSpace=wrap;html=1;strokeColor=#d6b656;fillColor=#fff2cc;" parent="1" vertex="1">
          <mxGeometry x="230" y="310" width="10" height="10" as="geometry" />
        </mxCell>
        <mxCell id="hC3qg4Dy1fM1G_aWGaBE-6" value="Personas" style="text;html=1;strokeColor=none;fillColor=none;align=left;verticalAlign=middle;whiteSpace=wrap;rounded=0;fontSize=10;" parent="1" vertex="1">
          <mxGeometry x="240" y="310" width="70" height="10" as="geometry" />
        </mxCell>
        <mxCell id="hC3qg4Dy1fM1G_aWGaBE-7" value="" style="rounded=0;whiteSpace=wrap;html=1;strokeColor=#9AC7BF;fillColor=#9AC7BF;" parent="1" vertex="1">
          <mxGeometry x="310" y="310" width="10" height="10" as="geometry" />
        </mxCell>
        <mxCell id="hC3qg4Dy1fM1G_aWGaBE-8" value="Utterance" style="text;html=1;strokeColor=none;fillColor=none;align=left;verticalAlign=middle;whiteSpace=wrap;rounded=0;fontSize=10;" parent="1" vertex="1">
          <mxGeometry x="320" y="310" width="70" height="10" as="geometry" />
        </mxCell>
        <mxCell id="yFvMUjJi2-mIJShBbfv3-1" value="" style="rounded=0;whiteSpace=wrap;html=1;strokeColor=none;fillColor=none;" parent="1" vertex="1">
          <mxGeometry x="110" y="300" width="650" height="30" as="geometry" />
        </mxCell>
      </root>
    </mxGraphModel>
  </diagram>
  <diagram name="Kopie van selfchat" id="ZSWKBMeOy0_RE2qsuise">
    <mxGraphModel dx="911" dy="649" grid="1" gridSize="10" guides="1" tooltips="1" connect="1" arrows="1" fold="1" page="1" pageScale="1" pageWidth="1169" pageHeight="827" math="1" shadow="0">
      <root>
        <mxCell id="0c9Q9zX7ohPOXq5rc0eX-0" />
        <mxCell id="0c9Q9zX7ohPOXq5rc0eX-1" parent="0c9Q9zX7ohPOXq5rc0eX-0" />
        <mxCell id="0c9Q9zX7ohPOXq5rc0eX-2" value="" style="rounded=0;whiteSpace=wrap;html=1;" parent="0c9Q9zX7ohPOXq5rc0eX-1" vertex="1">
          <mxGeometry x="110" y="60" width="650" height="240" as="geometry" />
        </mxCell>
        <mxCell id="0c9Q9zX7ohPOXq5rc0eX-3" value="" style="rounded=0;whiteSpace=wrap;html=1;" parent="0c9Q9zX7ohPOXq5rc0eX-1" vertex="1">
          <mxGeometry x="110" y="310" width="650" height="240" as="geometry" />
        </mxCell>
        <mxCell id="0c9Q9zX7ohPOXq5rc0eX-4" value="" style="rounded=0;whiteSpace=wrap;html=1;fillColor=#d5e8d4;strokeColor=#82b366;" parent="0c9Q9zX7ohPOXq5rc0eX-1" vertex="1">
          <mxGeometry x="130" y="340" width="310" height="60" as="geometry" />
        </mxCell>
        <mxCell id="0c9Q9zX7ohPOXq5rc0eX-5" value="" style="rounded=0;whiteSpace=wrap;html=1;fillColor=#d5e8d4;strokeColor=#82b366;" parent="0c9Q9zX7ohPOXq5rc0eX-1" vertex="1">
          <mxGeometry x="200" y="90" width="240" height="60" as="geometry" />
        </mxCell>
        <mxCell id="0c9Q9zX7ohPOXq5rc0eX-6" value="Utterance generator" style="whiteSpace=wrap;html=1;aspect=fixed;fillColor=#dae8fc;strokeColor=#6c8ebf;" parent="0c9Q9zX7ohPOXq5rc0eX-1" vertex="1">
          <mxGeometry x="480" y="80" width="80" height="80" as="geometry" />
        </mxCell>
        <mxCell id="0c9Q9zX7ohPOXq5rc0eX-7" value="" style="endArrow=classic;html=1;rounded=0;entryX=0;entryY=0.5;entryDx=0;entryDy=0;exitX=1;exitY=0.5;exitDx=0;exitDy=0;" parent="0c9Q9zX7ohPOXq5rc0eX-1" source="0c9Q9zX7ohPOXq5rc0eX-5" target="0c9Q9zX7ohPOXq5rc0eX-6" edge="1">
          <mxGeometry width="50" height="50" relative="1" as="geometry">
            <mxPoint x="450" y="-30" as="sourcePoint" />
            <mxPoint x="490" y="-30" as="targetPoint" />
          </mxGeometry>
        </mxCell>
        <mxCell id="0c9Q9zX7ohPOXq5rc0eX-8" value="" style="endArrow=classic;html=1;rounded=0;exitX=1;exitY=0.5;exitDx=0;exitDy=0;entryX=0;entryY=0.5;entryDx=0;entryDy=0;" parent="0c9Q9zX7ohPOXq5rc0eX-1" target="0c9Q9zX7ohPOXq5rc0eX-17" edge="1">
          <mxGeometry width="50" height="50" relative="1" as="geometry">
            <mxPoint x="560" y="120.5" as="sourcePoint" />
            <mxPoint x="600" y="120.5" as="targetPoint" />
          </mxGeometry>
        </mxCell>
        <mxCell id="0c9Q9zX7ohPOXq5rc0eX-9" value="" style="edgeStyle=elbowEdgeStyle;elbow=vertical;endArrow=classic;html=1;curved=0;rounded=0;endSize=8;startSize=8;dashed=1;entryX=0.5;entryY=1;entryDx=0;entryDy=0;exitX=0.5;exitY=1;exitDx=0;exitDy=0;" parent="0c9Q9zX7ohPOXq5rc0eX-1" source="0c9Q9zX7ohPOXq5rc0eX-17" target="0c9Q9zX7ohPOXq5rc0eX-10" edge="1">
          <mxGeometry width="50" height="50" relative="1" as="geometry">
            <mxPoint x="620" y="150" as="sourcePoint" />
            <mxPoint x="450" y="137.5" as="targetPoint" />
            <Array as="points">
              <mxPoint x="520" y="180" />
            </Array>
          </mxGeometry>
        </mxCell>
        <mxCell id="0c9Q9zX7ohPOXq5rc0eX-10" value="$$\mathbf{u}_{&amp;lt;t}$$" style="rounded=0;whiteSpace=wrap;html=1;fillColor=#9AC7BF;strokeColor=#82b366;" parent="0c9Q9zX7ohPOXq5rc0eX-1" vertex="1">
          <mxGeometry x="390" y="100" width="40" height="40" as="geometry" />
        </mxCell>
        <mxCell id="0c9Q9zX7ohPOXq5rc0eX-11" value="$$P^E_{A}$$" style="rounded=0;whiteSpace=wrap;html=1;fillColor=#fff2cc;strokeColor=#d6b656;" parent="0c9Q9zX7ohPOXq5rc0eX-1" vertex="1">
          <mxGeometry x="260" y="100" width="40" height="40" as="geometry" />
        </mxCell>
        <mxCell id="0c9Q9zX7ohPOXq5rc0eX-12" value="$$P^E_{B}$$" style="rounded=0;whiteSpace=wrap;html=1;fillColor=#fff2cc;strokeColor=#d6b656;" parent="0c9Q9zX7ohPOXq5rc0eX-1" vertex="1">
          <mxGeometry x="300" y="100" width="40" height="40" as="geometry" />
        </mxCell>
        <mxCell id="0c9Q9zX7ohPOXq5rc0eX-13" value="$$P_{A}$$" style="rounded=0;whiteSpace=wrap;html=1;fillColor=#fff2cc;strokeColor=#d6b656;" parent="0c9Q9zX7ohPOXq5rc0eX-1" vertex="1">
          <mxGeometry x="220" y="100" width="40" height="40" as="geometry" />
        </mxCell>
        <mxCell id="0c9Q9zX7ohPOXq5rc0eX-14" value="" style="rounded=0;whiteSpace=wrap;html=1;fillColor=#e1d5e7;strokeColor=#9673a6;" parent="0c9Q9zX7ohPOXq5rc0eX-1" vertex="1">
          <mxGeometry x="210" y="100" width="10" height="40" as="geometry" />
        </mxCell>
        <mxCell id="0c9Q9zX7ohPOXq5rc0eX-15" value="" style="rounded=0;whiteSpace=wrap;html=1;fillColor=#e1d5e7;strokeColor=#9673a6;" parent="0c9Q9zX7ohPOXq5rc0eX-1" vertex="1">
          <mxGeometry x="340" y="100" width="10" height="40" as="geometry" />
        </mxCell>
        <mxCell id="0c9Q9zX7ohPOXq5rc0eX-16" value="$$S_T$$" style="rounded=0;whiteSpace=wrap;html=1;container=0;strokeColor=#7A7A7A;" parent="0c9Q9zX7ohPOXq5rc0eX-1" vertex="1">
          <mxGeometry x="350" y="100" width="40" height="40" as="geometry" />
        </mxCell>
        <mxCell id="0c9Q9zX7ohPOXq5rc0eX-17" value="$$\mathbf{u}^A_t$$" style="rounded=0;whiteSpace=wrap;html=1;fillColor=#9AC7BF;strokeColor=#82b366;" parent="0c9Q9zX7ohPOXq5rc0eX-1" vertex="1">
          <mxGeometry x="600" y="100" width="40" height="40" as="geometry" />
        </mxCell>
        <mxCell id="0c9Q9zX7ohPOXq5rc0eX-18" value="" style="rounded=0;whiteSpace=wrap;html=1;fillColor=#d5e8d4;strokeColor=#82b366;" parent="0c9Q9zX7ohPOXq5rc0eX-1" vertex="1">
          <mxGeometry x="200" y="210" width="240" height="60" as="geometry" />
        </mxCell>
        <mxCell id="0c9Q9zX7ohPOXq5rc0eX-19" value="Utterance generator" style="whiteSpace=wrap;html=1;aspect=fixed;fillColor=#dae8fc;strokeColor=#6c8ebf;" parent="0c9Q9zX7ohPOXq5rc0eX-1" vertex="1">
          <mxGeometry x="480" y="200" width="80" height="80" as="geometry" />
        </mxCell>
        <mxCell id="0c9Q9zX7ohPOXq5rc0eX-20" value="" style="endArrow=classic;html=1;rounded=0;entryX=0;entryY=0.5;entryDx=0;entryDy=0;exitX=1;exitY=0.5;exitDx=0;exitDy=0;" parent="0c9Q9zX7ohPOXq5rc0eX-1" source="0c9Q9zX7ohPOXq5rc0eX-18" target="0c9Q9zX7ohPOXq5rc0eX-19" edge="1">
          <mxGeometry width="50" height="50" relative="1" as="geometry">
            <mxPoint x="450" y="90" as="sourcePoint" />
            <mxPoint x="490" y="90" as="targetPoint" />
          </mxGeometry>
        </mxCell>
        <mxCell id="0c9Q9zX7ohPOXq5rc0eX-21" value="" style="endArrow=classic;html=1;rounded=0;exitX=1;exitY=0.5;exitDx=0;exitDy=0;entryX=0;entryY=0.5;entryDx=0;entryDy=0;" parent="0c9Q9zX7ohPOXq5rc0eX-1" target="0c9Q9zX7ohPOXq5rc0eX-29" edge="1">
          <mxGeometry width="50" height="50" relative="1" as="geometry">
            <mxPoint x="560" y="240.5" as="sourcePoint" />
            <mxPoint x="600" y="240.5" as="targetPoint" />
          </mxGeometry>
        </mxCell>
        <mxCell id="0c9Q9zX7ohPOXq5rc0eX-22" value="$$\mathbf{u}_{&amp;lt;t}$$" style="rounded=0;whiteSpace=wrap;html=1;fillColor=#9AC7BF;strokeColor=#82b366;" parent="0c9Q9zX7ohPOXq5rc0eX-1" vertex="1">
          <mxGeometry x="390" y="220" width="40" height="40" as="geometry" />
        </mxCell>
        <mxCell id="0c9Q9zX7ohPOXq5rc0eX-23" value="$$P^E_{B}$$" style="rounded=0;whiteSpace=wrap;html=1;fillColor=#fff2cc;strokeColor=#d6b656;" parent="0c9Q9zX7ohPOXq5rc0eX-1" vertex="1">
          <mxGeometry x="260" y="220" width="40" height="40" as="geometry" />
        </mxCell>
        <mxCell id="0c9Q9zX7ohPOXq5rc0eX-24" value="$$P^E_{A}$$" style="rounded=0;whiteSpace=wrap;html=1;fillColor=#fff2cc;strokeColor=#d6b656;" parent="0c9Q9zX7ohPOXq5rc0eX-1" vertex="1">
          <mxGeometry x="300" y="220" width="40" height="40" as="geometry" />
        </mxCell>
        <mxCell id="0c9Q9zX7ohPOXq5rc0eX-25" value="$$P_{B}$$" style="rounded=0;whiteSpace=wrap;html=1;fillColor=#fff2cc;strokeColor=#d6b656;" parent="0c9Q9zX7ohPOXq5rc0eX-1" vertex="1">
          <mxGeometry x="220" y="220" width="40" height="40" as="geometry" />
        </mxCell>
        <mxCell id="0c9Q9zX7ohPOXq5rc0eX-26" value="" style="rounded=0;whiteSpace=wrap;html=1;fillColor=#e1d5e7;strokeColor=#9673a6;" parent="0c9Q9zX7ohPOXq5rc0eX-1" vertex="1">
          <mxGeometry x="210" y="220" width="10" height="40" as="geometry" />
        </mxCell>
        <mxCell id="0c9Q9zX7ohPOXq5rc0eX-27" value="" style="rounded=0;whiteSpace=wrap;html=1;fillColor=#e1d5e7;strokeColor=#9673a6;" parent="0c9Q9zX7ohPOXq5rc0eX-1" vertex="1">
          <mxGeometry x="340" y="220" width="10" height="40" as="geometry" />
        </mxCell>
        <mxCell id="0c9Q9zX7ohPOXq5rc0eX-28" value="$$S_T$$" style="rounded=0;whiteSpace=wrap;html=1;container=0;strokeColor=#7A7A7A;" parent="0c9Q9zX7ohPOXq5rc0eX-1" vertex="1">
          <mxGeometry x="350" y="220" width="40" height="40" as="geometry" />
        </mxCell>
        <mxCell id="0c9Q9zX7ohPOXq5rc0eX-29" value="$$\mathbf{u}^B_{t+1}$$" style="rounded=0;whiteSpace=wrap;html=1;fillColor=#9AC7BF;strokeColor=#82b366;" parent="0c9Q9zX7ohPOXq5rc0eX-1" vertex="1">
          <mxGeometry x="650" y="220" width="40" height="40" as="geometry" />
        </mxCell>
        <mxCell id="0c9Q9zX7ohPOXq5rc0eX-30" value="$$\mathbf{u}^A_{t+2}$$" style="rounded=0;whiteSpace=wrap;html=1;fillColor=#9AC7BF;strokeColor=#82b366;" parent="0c9Q9zX7ohPOXq5rc0eX-1" vertex="1">
          <mxGeometry x="700" y="100" width="40" height="40" as="geometry" />
        </mxCell>
        <mxCell id="0c9Q9zX7ohPOXq5rc0eX-31" value="" style="shape=partialRectangle;whiteSpace=wrap;html=1;bottom=0;right=0;fillColor=none;rotation=-180;dashed=1;" parent="0c9Q9zX7ohPOXq5rc0eX-1" vertex="1">
          <mxGeometry x="620" y="140" width="100" height="40" as="geometry" />
        </mxCell>
        <mxCell id="0c9Q9zX7ohPOXq5rc0eX-32" value="" style="edgeStyle=elbowEdgeStyle;elbow=vertical;endArrow=classic;html=1;curved=0;rounded=0;endSize=8;startSize=8;dashed=1;entryX=0.5;entryY=0;entryDx=0;entryDy=0;exitX=0.5;exitY=0;exitDx=0;exitDy=0;" parent="0c9Q9zX7ohPOXq5rc0eX-1" source="0c9Q9zX7ohPOXq5rc0eX-29" target="0c9Q9zX7ohPOXq5rc0eX-22" edge="1">
          <mxGeometry width="50" height="50" relative="1" as="geometry">
            <mxPoint x="630" y="110" as="sourcePoint" />
            <mxPoint x="420" y="110" as="targetPoint" />
            <Array as="points">
              <mxPoint x="540" y="180" />
            </Array>
          </mxGeometry>
        </mxCell>
        <mxCell id="0c9Q9zX7ohPOXq5rc0eX-33" value="Agent A" style="text;html=1;strokeColor=none;fillColor=none;align=left;verticalAlign=middle;whiteSpace=wrap;rounded=0;" parent="0c9Q9zX7ohPOXq5rc0eX-1" vertex="1">
          <mxGeometry x="200" y="70" width="150" height="20" as="geometry" />
        </mxCell>
        <mxCell id="0c9Q9zX7ohPOXq5rc0eX-34" value="Agent B" style="text;html=1;strokeColor=none;fillColor=none;align=left;verticalAlign=middle;whiteSpace=wrap;rounded=0;" parent="0c9Q9zX7ohPOXq5rc0eX-1" vertex="1">
          <mxGeometry x="200" y="190" width="150" height="20" as="geometry" />
        </mxCell>
        <mxCell id="0c9Q9zX7ohPOXq5rc0eX-35" value="Utterance generator" style="whiteSpace=wrap;html=1;aspect=fixed;fillColor=#dae8fc;strokeColor=#6c8ebf;" parent="0c9Q9zX7ohPOXq5rc0eX-1" vertex="1">
          <mxGeometry x="480" y="330" width="80" height="80" as="geometry" />
        </mxCell>
        <mxCell id="0c9Q9zX7ohPOXq5rc0eX-36" value="" style="endArrow=classic;html=1;rounded=0;entryX=0;entryY=0.5;entryDx=0;entryDy=0;exitX=1;exitY=0.5;exitDx=0;exitDy=0;" parent="0c9Q9zX7ohPOXq5rc0eX-1" source="0c9Q9zX7ohPOXq5rc0eX-4" target="0c9Q9zX7ohPOXq5rc0eX-35" edge="1">
          <mxGeometry width="50" height="50" relative="1" as="geometry">
            <mxPoint x="450" y="380" as="sourcePoint" />
            <mxPoint x="490" y="220" as="targetPoint" />
          </mxGeometry>
        </mxCell>
        <mxCell id="0c9Q9zX7ohPOXq5rc0eX-37" value="" style="endArrow=classic;html=1;rounded=0;exitX=1;exitY=0.5;exitDx=0;exitDy=0;entryX=0;entryY=0.5;entryDx=0;entryDy=0;" parent="0c9Q9zX7ohPOXq5rc0eX-1" target="0c9Q9zX7ohPOXq5rc0eX-44" edge="1">
          <mxGeometry width="50" height="50" relative="1" as="geometry">
            <mxPoint x="560" y="370.5" as="sourcePoint" />
            <mxPoint x="600" y="370.5" as="targetPoint" />
          </mxGeometry>
        </mxCell>
        <mxCell id="0c9Q9zX7ohPOXq5rc0eX-38" value="" style="edgeStyle=elbowEdgeStyle;elbow=vertical;endArrow=classic;html=1;curved=0;rounded=0;endSize=8;startSize=8;dashed=1;entryX=0.5;entryY=1;entryDx=0;entryDy=0;exitX=0.5;exitY=1;exitDx=0;exitDy=0;" parent="0c9Q9zX7ohPOXq5rc0eX-1" source="0c9Q9zX7ohPOXq5rc0eX-44" target="0c9Q9zX7ohPOXq5rc0eX-39" edge="1">
          <mxGeometry width="50" height="50" relative="1" as="geometry">
            <mxPoint x="620" y="400" as="sourcePoint" />
            <mxPoint x="450" y="387.5" as="targetPoint" />
            <Array as="points">
              <mxPoint x="520" y="430" />
            </Array>
          </mxGeometry>
        </mxCell>
        <mxCell id="0c9Q9zX7ohPOXq5rc0eX-39" value="$$\mathbf{u}_{&amp;lt;t}$$" style="rounded=0;whiteSpace=wrap;html=1;fillColor=#9AC7BF;strokeColor=#82b366;" parent="0c9Q9zX7ohPOXq5rc0eX-1" vertex="1">
          <mxGeometry x="390" y="350" width="40" height="40" as="geometry" />
        </mxCell>
        <mxCell id="0c9Q9zX7ohPOXq5rc0eX-40" value="$$P_{A}$$" style="rounded=0;whiteSpace=wrap;html=1;fillColor=#fff2cc;strokeColor=#d6b656;" parent="0c9Q9zX7ohPOXq5rc0eX-1" vertex="1">
          <mxGeometry x="300" y="350" width="40" height="40" as="geometry" />
        </mxCell>
        <mxCell id="0c9Q9zX7ohPOXq5rc0eX-41" value="" style="rounded=0;whiteSpace=wrap;html=1;fillColor=#e1d5e7;strokeColor=#9673a6;" parent="0c9Q9zX7ohPOXq5rc0eX-1" vertex="1">
          <mxGeometry x="290" y="350" width="10" height="40" as="geometry" />
        </mxCell>
        <mxCell id="0c9Q9zX7ohPOXq5rc0eX-42" value="" style="rounded=0;whiteSpace=wrap;html=1;fillColor=#e1d5e7;strokeColor=#9673a6;" parent="0c9Q9zX7ohPOXq5rc0eX-1" vertex="1">
          <mxGeometry x="340" y="350" width="10" height="40" as="geometry" />
        </mxCell>
        <mxCell id="0c9Q9zX7ohPOXq5rc0eX-43" value="$$S_T$$" style="rounded=0;whiteSpace=wrap;html=1;container=0;strokeColor=#7A7A7A;" parent="0c9Q9zX7ohPOXq5rc0eX-1" vertex="1">
          <mxGeometry x="350" y="350" width="40" height="40" as="geometry" />
        </mxCell>
        <mxCell id="0c9Q9zX7ohPOXq5rc0eX-44" value="$$\mathbf{u}^A_t$$" style="rounded=0;whiteSpace=wrap;html=1;fillColor=#9AC7BF;strokeColor=#82b366;" parent="0c9Q9zX7ohPOXq5rc0eX-1" vertex="1">
          <mxGeometry x="600" y="350" width="40" height="40" as="geometry" />
        </mxCell>
        <mxCell id="0c9Q9zX7ohPOXq5rc0eX-45" value="Utterance generator" style="whiteSpace=wrap;html=1;aspect=fixed;fillColor=#dae8fc;strokeColor=#6c8ebf;" parent="0c9Q9zX7ohPOXq5rc0eX-1" vertex="1">
          <mxGeometry x="480" y="450" width="80" height="80" as="geometry" />
        </mxCell>
        <mxCell id="0c9Q9zX7ohPOXq5rc0eX-46" value="" style="endArrow=classic;html=1;rounded=0;entryX=0;entryY=0.5;entryDx=0;entryDy=0;exitX=1;exitY=0.5;exitDx=0;exitDy=0;" parent="0c9Q9zX7ohPOXq5rc0eX-1" target="0c9Q9zX7ohPOXq5rc0eX-45" edge="1">
          <mxGeometry width="50" height="50" relative="1" as="geometry">
            <mxPoint x="440" y="489.9999999999999" as="sourcePoint" />
            <mxPoint x="490" y="340" as="targetPoint" />
          </mxGeometry>
        </mxCell>
        <mxCell id="0c9Q9zX7ohPOXq5rc0eX-47" value="" style="endArrow=classic;html=1;rounded=0;exitX=1;exitY=0.5;exitDx=0;exitDy=0;entryX=0;entryY=0.5;entryDx=0;entryDy=0;" parent="0c9Q9zX7ohPOXq5rc0eX-1" target="0c9Q9zX7ohPOXq5rc0eX-48" edge="1">
          <mxGeometry width="50" height="50" relative="1" as="geometry">
            <mxPoint x="560" y="490.5" as="sourcePoint" />
            <mxPoint x="600" y="490.5" as="targetPoint" />
          </mxGeometry>
        </mxCell>
        <mxCell id="0c9Q9zX7ohPOXq5rc0eX-48" value="$$\mathbf{u}^B_{t+1}$$" style="rounded=0;whiteSpace=wrap;html=1;fillColor=#9AC7BF;strokeColor=#82b366;" parent="0c9Q9zX7ohPOXq5rc0eX-1" vertex="1">
          <mxGeometry x="650" y="470" width="40" height="40" as="geometry" />
        </mxCell>
        <mxCell id="0c9Q9zX7ohPOXq5rc0eX-49" value="$$\mathbf{u}^A_{t+2}$$" style="rounded=0;whiteSpace=wrap;html=1;fillColor=#9AC7BF;strokeColor=#82b366;" parent="0c9Q9zX7ohPOXq5rc0eX-1" vertex="1">
          <mxGeometry x="700" y="350" width="40" height="40" as="geometry" />
        </mxCell>
        <mxCell id="0c9Q9zX7ohPOXq5rc0eX-50" value="" style="shape=partialRectangle;whiteSpace=wrap;html=1;bottom=0;right=0;fillColor=none;rotation=-180;dashed=1;" parent="0c9Q9zX7ohPOXq5rc0eX-1" vertex="1">
          <mxGeometry x="620" y="390" width="100" height="40" as="geometry" />
        </mxCell>
        <mxCell id="0c9Q9zX7ohPOXq5rc0eX-51" value="Agent A" style="text;html=1;strokeColor=none;fillColor=none;align=left;verticalAlign=middle;whiteSpace=wrap;rounded=0;" parent="0c9Q9zX7ohPOXq5rc0eX-1" vertex="1">
          <mxGeometry x="130" y="320" width="150" height="20" as="geometry" />
        </mxCell>
        <mxCell id="0c9Q9zX7ohPOXq5rc0eX-52" value="$$S_{T-1}$$" style="rounded=0;whiteSpace=wrap;html=1;container=0;strokeColor=#7A7A7A;" parent="0c9Q9zX7ohPOXq5rc0eX-1" vertex="1">
          <mxGeometry x="250" y="350" width="40" height="40" as="geometry" />
        </mxCell>
        <mxCell id="0c9Q9zX7ohPOXq5rc0eX-53" value="" style="rounded=0;whiteSpace=wrap;html=1;fillColor=#e1d5e7;strokeColor=#9673a6;" parent="0c9Q9zX7ohPOXq5rc0eX-1" vertex="1">
          <mxGeometry x="240" y="350" width="10" height="40" as="geometry" />
        </mxCell>
        <mxCell id="0c9Q9zX7ohPOXq5rc0eX-54" value="" style="rounded=0;whiteSpace=wrap;html=1;fillColor=#e1d5e7;strokeColor=#9673a6;" parent="0c9Q9zX7ohPOXq5rc0eX-1" vertex="1">
          <mxGeometry x="190" y="350" width="10" height="40" as="geometry" />
        </mxCell>
        <mxCell id="0c9Q9zX7ohPOXq5rc0eX-55" value="$$S_{1}$$" style="rounded=0;whiteSpace=wrap;html=1;container=0;strokeColor=#7A7A7A;" parent="0c9Q9zX7ohPOXq5rc0eX-1" vertex="1">
          <mxGeometry x="150" y="350" width="40" height="40" as="geometry" />
        </mxCell>
        <mxCell id="0c9Q9zX7ohPOXq5rc0eX-56" value="$$\cdots$$" style="text;html=1;strokeColor=none;fillColor=none;align=center;verticalAlign=middle;whiteSpace=wrap;rounded=0;" parent="0c9Q9zX7ohPOXq5rc0eX-1" vertex="1">
          <mxGeometry x="200" y="350" width="40" height="40" as="geometry" />
        </mxCell>
        <mxCell id="0c9Q9zX7ohPOXq5rc0eX-57" value="" style="rounded=0;whiteSpace=wrap;html=1;fillColor=#e1d5e7;strokeColor=#9673a6;" parent="0c9Q9zX7ohPOXq5rc0eX-1" vertex="1">
          <mxGeometry x="140" y="350" width="10" height="40" as="geometry" />
        </mxCell>
        <mxCell id="0c9Q9zX7ohPOXq5rc0eX-58" value="" style="rounded=0;whiteSpace=wrap;html=1;fillColor=#d5e8d4;strokeColor=#82b366;" parent="0c9Q9zX7ohPOXq5rc0eX-1" vertex="1">
          <mxGeometry x="130" y="460" width="310" height="60" as="geometry" />
        </mxCell>
        <mxCell id="0c9Q9zX7ohPOXq5rc0eX-59" value="$$\mathbf{u}_{&amp;lt;t}$$" style="rounded=0;whiteSpace=wrap;html=1;fillColor=#9AC7BF;strokeColor=#82b366;" parent="0c9Q9zX7ohPOXq5rc0eX-1" vertex="1">
          <mxGeometry x="390" y="470" width="40" height="40" as="geometry" />
        </mxCell>
        <mxCell id="0c9Q9zX7ohPOXq5rc0eX-60" value="$$P_{B}$$" style="rounded=0;whiteSpace=wrap;html=1;fillColor=#fff2cc;strokeColor=#d6b656;" parent="0c9Q9zX7ohPOXq5rc0eX-1" vertex="1">
          <mxGeometry x="300" y="470" width="40" height="40" as="geometry" />
        </mxCell>
        <mxCell id="0c9Q9zX7ohPOXq5rc0eX-61" value="" style="rounded=0;whiteSpace=wrap;html=1;fillColor=#e1d5e7;strokeColor=#9673a6;" parent="0c9Q9zX7ohPOXq5rc0eX-1" vertex="1">
          <mxGeometry x="290" y="470" width="10" height="40" as="geometry" />
        </mxCell>
        <mxCell id="0c9Q9zX7ohPOXq5rc0eX-62" value="" style="rounded=0;whiteSpace=wrap;html=1;fillColor=#e1d5e7;strokeColor=#9673a6;" parent="0c9Q9zX7ohPOXq5rc0eX-1" vertex="1">
          <mxGeometry x="340" y="470" width="10" height="40" as="geometry" />
        </mxCell>
        <mxCell id="0c9Q9zX7ohPOXq5rc0eX-63" value="$$S_T$$" style="rounded=0;whiteSpace=wrap;html=1;container=0;strokeColor=#7A7A7A;" parent="0c9Q9zX7ohPOXq5rc0eX-1" vertex="1">
          <mxGeometry x="350" y="470" width="40" height="40" as="geometry" />
        </mxCell>
        <mxCell id="0c9Q9zX7ohPOXq5rc0eX-64" value="Agent B" style="text;html=1;strokeColor=none;fillColor=none;align=left;verticalAlign=middle;whiteSpace=wrap;rounded=0;" parent="0c9Q9zX7ohPOXq5rc0eX-1" vertex="1">
          <mxGeometry x="130" y="440" width="150" height="20" as="geometry" />
        </mxCell>
        <mxCell id="0c9Q9zX7ohPOXq5rc0eX-65" value="$$S_{T-1}$$" style="rounded=0;whiteSpace=wrap;html=1;container=0;strokeColor=#7A7A7A;" parent="0c9Q9zX7ohPOXq5rc0eX-1" vertex="1">
          <mxGeometry x="250" y="470" width="40" height="40" as="geometry" />
        </mxCell>
        <mxCell id="0c9Q9zX7ohPOXq5rc0eX-66" value="" style="rounded=0;whiteSpace=wrap;html=1;fillColor=#e1d5e7;strokeColor=#9673a6;" parent="0c9Q9zX7ohPOXq5rc0eX-1" vertex="1">
          <mxGeometry x="240" y="470" width="10" height="40" as="geometry" />
        </mxCell>
        <mxCell id="0c9Q9zX7ohPOXq5rc0eX-67" value="" style="rounded=0;whiteSpace=wrap;html=1;fillColor=#e1d5e7;strokeColor=#9673a6;" parent="0c9Q9zX7ohPOXq5rc0eX-1" vertex="1">
          <mxGeometry x="190" y="470" width="10" height="40" as="geometry" />
        </mxCell>
        <mxCell id="0c9Q9zX7ohPOXq5rc0eX-68" value="$$S_{1}$$" style="rounded=0;whiteSpace=wrap;html=1;container=0;strokeColor=#7A7A7A;" parent="0c9Q9zX7ohPOXq5rc0eX-1" vertex="1">
          <mxGeometry x="150" y="470" width="40" height="40" as="geometry" />
        </mxCell>
        <mxCell id="0c9Q9zX7ohPOXq5rc0eX-69" value="$$\cdots$$" style="text;html=1;strokeColor=none;fillColor=none;align=center;verticalAlign=middle;whiteSpace=wrap;rounded=0;" parent="0c9Q9zX7ohPOXq5rc0eX-1" vertex="1">
          <mxGeometry x="200" y="470" width="40" height="40" as="geometry" />
        </mxCell>
        <mxCell id="0c9Q9zX7ohPOXq5rc0eX-70" value="" style="rounded=0;whiteSpace=wrap;html=1;fillColor=#e1d5e7;strokeColor=#9673a6;" parent="0c9Q9zX7ohPOXq5rc0eX-1" vertex="1">
          <mxGeometry x="140" y="470" width="10" height="40" as="geometry" />
        </mxCell>
        <mxCell id="0c9Q9zX7ohPOXq5rc0eX-71" value="" style="edgeStyle=elbowEdgeStyle;elbow=vertical;endArrow=classic;html=1;curved=0;rounded=0;endSize=8;startSize=8;dashed=1;entryX=0.5;entryY=0;entryDx=0;entryDy=0;exitX=0.5;exitY=0;exitDx=0;exitDy=0;" parent="0c9Q9zX7ohPOXq5rc0eX-1" source="0c9Q9zX7ohPOXq5rc0eX-48" edge="1">
          <mxGeometry width="50" height="50" relative="1" as="geometry">
            <mxPoint x="630" y="360" as="sourcePoint" />
            <mxPoint x="410" y="469.9999999999999" as="targetPoint" />
            <Array as="points">
              <mxPoint x="540" y="430" />
            </Array>
          </mxGeometry>
        </mxCell>
        <mxCell id="0c9Q9zX7ohPOXq5rc0eX-72" value="" style="endArrow=none;html=1;rounded=0;entryX=0;entryY=0;entryDx=0;entryDy=0;exitX=0.969;exitY=0.5;exitDx=0;exitDy=0;exitPerimeter=0;dashed=1;" parent="0c9Q9zX7ohPOXq5rc0eX-1" source="0c9Q9zX7ohPOXq5rc0eX-2" target="0c9Q9zX7ohPOXq5rc0eX-31" edge="1">
          <mxGeometry width="50" height="50" relative="1" as="geometry">
            <mxPoint x="390" y="340" as="sourcePoint" />
            <mxPoint x="440" y="290" as="targetPoint" />
            <Array as="points">
              <mxPoint x="730" y="180" />
            </Array>
          </mxGeometry>
        </mxCell>
        <mxCell id="0c9Q9zX7ohPOXq5rc0eX-73" value="" style="endArrow=none;html=1;rounded=0;entryX=0;entryY=0;entryDx=0;entryDy=0;dashed=1;exitX=0.969;exitY=0.5;exitDx=0;exitDy=0;exitPerimeter=0;" parent="0c9Q9zX7ohPOXq5rc0eX-1" source="0c9Q9zX7ohPOXq5rc0eX-3" target="0c9Q9zX7ohPOXq5rc0eX-50" edge="1">
          <mxGeometry width="50" height="50" relative="1" as="geometry">
            <mxPoint x="820" y="420" as="sourcePoint" />
            <mxPoint x="730" y="190" as="targetPoint" />
          </mxGeometry>
        </mxCell>
        <mxCell id="0c9Q9zX7ohPOXq5rc0eX-74" value="" style="rounded=0;whiteSpace=wrap;html=1;fillColor=#e1d5e7;strokeColor=#9673a6;" parent="0c9Q9zX7ohPOXq5rc0eX-1" vertex="1">
          <mxGeometry x="390" y="560" width="10" height="10" as="geometry" />
        </mxCell>
        <mxCell id="0c9Q9zX7ohPOXq5rc0eX-75" value="Session separator (optional)" style="text;html=1;strokeColor=none;fillColor=none;align=left;verticalAlign=middle;whiteSpace=wrap;rounded=0;fontSize=10;" parent="0c9Q9zX7ohPOXq5rc0eX-1" vertex="1">
          <mxGeometry x="400" y="560" width="150" height="10" as="geometry" />
        </mxCell>
        <mxCell id="0c9Q9zX7ohPOXq5rc0eX-76" value="" style="rounded=0;whiteSpace=wrap;html=1;strokeColor=#7A7A7A;" parent="0c9Q9zX7ohPOXq5rc0eX-1" vertex="1">
          <mxGeometry x="120" y="560" width="10" height="10" as="geometry" />
        </mxCell>
        <mxCell id="0c9Q9zX7ohPOXq5rc0eX-77" value="Dialogue session" style="text;html=1;strokeColor=none;fillColor=none;align=left;verticalAlign=middle;whiteSpace=wrap;rounded=0;fontSize=10;" parent="0c9Q9zX7ohPOXq5rc0eX-1" vertex="1">
          <mxGeometry x="130" y="560" width="120" height="10" as="geometry" />
        </mxCell>
        <mxCell id="0c9Q9zX7ohPOXq5rc0eX-78" value="" style="rounded=0;whiteSpace=wrap;html=1;strokeColor=#d6b656;fillColor=#fff2cc;" parent="0c9Q9zX7ohPOXq5rc0eX-1" vertex="1">
          <mxGeometry x="230" y="560" width="10" height="10" as="geometry" />
        </mxCell>
        <mxCell id="0c9Q9zX7ohPOXq5rc0eX-79" value="Personas" style="text;html=1;strokeColor=none;fillColor=none;align=left;verticalAlign=middle;whiteSpace=wrap;rounded=0;fontSize=10;" parent="0c9Q9zX7ohPOXq5rc0eX-1" vertex="1">
          <mxGeometry x="240" y="560" width="70" height="10" as="geometry" />
        </mxCell>
        <mxCell id="0c9Q9zX7ohPOXq5rc0eX-80" value="" style="rounded=0;whiteSpace=wrap;html=1;strokeColor=#9AC7BF;fillColor=#9AC7BF;" parent="0c9Q9zX7ohPOXq5rc0eX-1" vertex="1">
          <mxGeometry x="310" y="560" width="10" height="10" as="geometry" />
        </mxCell>
        <mxCell id="0c9Q9zX7ohPOXq5rc0eX-81" value="Utterance" style="text;html=1;strokeColor=none;fillColor=none;align=left;verticalAlign=middle;whiteSpace=wrap;rounded=0;fontSize=10;" parent="0c9Q9zX7ohPOXq5rc0eX-1" vertex="1">
          <mxGeometry x="320" y="560" width="70" height="10" as="geometry" />
        </mxCell>
        <mxCell id="0c9Q9zX7ohPOXq5rc0eX-82" value="" style="rounded=0;whiteSpace=wrap;html=1;strokeColor=none;fillColor=none;" parent="0c9Q9zX7ohPOXq5rc0eX-1" vertex="1">
          <mxGeometry x="110" y="550" width="650" height="30" as="geometry" />
        </mxCell>
      </root>
    </mxGraphModel>
  </diagram>
</mxfile>
